<svg width="282" height="76" viewBox="0 0 282 76" fill="none" xmlns="http://www.w3.org/2000/svg">
<mask id="path-1-outside-1_1_2" maskUnits="userSpaceOnUse" x="-2" y="-1" width="285" height="78" fill="black">
<rect fill="white" x="-2" y="-1" width="285" height="78"/>
<path d="M51.574 1.88C52.8967 2.136 53.878 2.584 54.518 3.224C55.2007 3.864 55.542 4.61066 55.542 5.464C55.542 6.872 55.1367 7.896 54.326 8.536C53.558 9.176 52.3207 9.432 50.614 9.304C46.774 9.00533 43.766 8.81333 41.59 8.728C39.4567 8.6 36.6407 8.51466 33.142 8.472C31.5633 16.3227 30.1127 24.216 28.79 32.152C28.3207 35.0533 27.83 38.424 27.318 42.264C26.806 46.0613 26.4647 49.1333 26.294 51.48C26.2087 52.7173 25.6967 53.6773 24.758 54.36C23.8193 55 22.6887 55.32 21.366 55.32C19.958 55.32 18.87 54.9787 18.102 54.296C17.334 53.6133 16.95 52.7173 16.95 51.608C16.95 50.584 17.0993 48.8987 17.398 46.552C17.7393 44.1627 18.1233 41.6667 18.55 39.064C19.0193 36.4613 19.382 34.2 19.638 32.28C20.1073 29.0373 20.6407 25.816 21.238 22.616C21.8353 19.416 22.4327 16.3867 23.03 13.528C23.158 12.888 23.3073 12.1627 23.478 11.352C23.6487 10.4987 23.8407 9.56 24.054 8.536C19.8727 8.664 16.5873 9.00533 14.198 9.56C11.8087 10.1147 10.102 10.904 9.078 11.928C8.09667 12.9093 7.606 14.1893 7.606 15.768C7.606 17.2187 8.03267 18.6053 8.886 19.928C9.05667 20.2267 9.142 20.5467 9.142 20.888C9.142 21.6987 8.65133 22.4667 7.67 23.192C6.73133 23.8747 5.75 24.216 4.726 24.216C4.00067 24.216 3.40333 24.0027 2.934 23.576C2.08067 22.8507 1.37667 21.8267 0.822 20.504C0.267333 19.1387 -0.00999999 17.6027 -0.00999999 15.896C-0.00999999 12.2693 1.16333 9.368 3.51 7.192C5.89933 4.97333 9.50467 3.352 14.326 2.328C19.19 1.304 25.4193 0.791996 33.014 0.791996C37.7073 0.791996 41.4407 0.87733 44.214 1.048C47.03 1.21866 49.4833 1.496 51.574 1.88ZM73.991 1.112C75.1003 1.112 76.039 1.38933 76.807 1.944C77.575 2.456 77.959 3.096 77.959 3.864C77.959 5.22933 77.5323 6.33867 76.679 7.192C75.8257 8.00266 74.6097 8.408 73.031 8.408C70.5563 8.408 68.679 8.42933 67.399 8.472C67.3137 8.984 66.9297 11.288 66.247 15.384C65.479 19.9493 65.0097 22.744 64.839 23.768L63.495 32.152C62.5563 38.424 61.8097 43.672 61.255 47.896C62.151 47.8533 63.367 47.832 64.903 47.832C67.1643 47.832 68.7003 48.1307 69.511 48.728C70.3217 49.3253 70.727 50.2213 70.727 51.416C70.727 52.5253 70.279 53.464 69.383 54.232C68.5297 55 67.3137 55.384 65.735 55.384C64.6683 55.384 62.983 55.3413 60.679 55.256C58.5457 55.1707 57.1377 55.128 56.455 55.128C53.767 55.128 50.823 55.3627 47.623 55.832C46.215 56.0453 45.2123 56.152 44.615 56.152C43.6763 56.152 42.887 55.896 42.247 55.384C41.607 54.872 41.287 54.1253 41.287 53.144C41.287 51.608 41.9697 50.4133 43.335 49.56C44.7003 48.7067 46.6203 48.2587 49.095 48.216L52.103 48.152L52.295 46.744C53.319 39.9173 54.0657 35.096 54.535 32.28L55.943 23.896C56.7963 18.9467 57.5643 13.848 58.247 8.6L52.871 8.664C51.335 8.664 50.2683 8.42933 49.671 7.96C49.1163 7.448 48.839 6.744 48.839 5.848C48.839 2.94667 50.9297 1.38933 55.111 1.176C57.0737 1.09066 59.463 1.048 62.279 1.048L73.991 1.112ZM126.095 40.728C126.649 40.728 127.076 40.984 127.375 41.496C127.716 42.008 127.887 42.712 127.887 43.608C127.887 45.272 127.481 46.5947 126.671 47.576C124.58 50.0507 122.511 51.9707 120.463 53.336C118.415 54.6587 116.132 55.32 113.615 55.32C109.817 55.32 106.937 54.1893 104.975 51.928C103.055 49.6667 101.497 46.36 100.303 42.008L98.1265 34.072L83.0225 52.76C82.1692 53.8267 81.2945 54.5307 80.3985 54.872C79.5025 55.1707 78.4572 55.32 77.2625 55.32C76.0678 55.32 75.0652 55.1067 74.2545 54.68C73.4865 54.2107 73.1025 53.5707 73.1025 52.76C73.1025 51.6933 73.7212 50.4773 74.9585 49.112L95.6945 25.496L93.6465 18.008C92.6652 14.5093 91.5772 12.056 90.3825 10.648C89.1878 9.24 87.8225 8.536 86.2865 8.536C84.0252 8.536 81.3798 10.1787 78.3505 13.464C77.8385 14.0187 77.2625 14.296 76.6225 14.296C75.9825 14.296 75.4278 14.0613 74.9585 13.592C74.5318 13.08 74.3185 12.44 74.3185 11.672C74.3185 10.392 74.9372 9.00533 76.1745 7.512C77.9238 5.464 79.8225 3.82133 81.8705 2.584C83.9185 1.34666 86.3505 0.727997 89.1665 0.727997C92.1958 0.727997 94.6918 1.688 96.6545 3.608C98.6172 5.48533 100.175 8.536 101.327 12.76L102.607 17.24L113.807 3.608C114.66 2.584 115.535 1.85867 116.431 1.432C117.327 1.00533 118.415 0.791996 119.695 0.791996C120.847 0.791996 121.743 1.00533 122.383 1.432C123.065 1.85867 123.407 2.456 123.407 3.224C123.407 4.248 122.831 5.42133 121.679 6.744L105.039 25.944L108.687 39C109.327 41.2613 109.903 42.9893 110.415 44.184C110.927 45.3787 111.545 46.2747 112.271 46.872C113.039 47.4267 114.041 47.704 115.279 47.704C116.601 47.704 117.967 47.2347 119.375 46.296C120.825 45.3573 122.489 43.8 124.367 41.624C124.879 41.0267 125.455 40.728 126.095 40.728ZM167.945 43.352C168.585 43.096 169.118 42.968 169.545 42.968C170.228 42.968 170.74 43.224 171.081 43.736C171.422 44.248 171.593 44.9093 171.593 45.72C171.593 47 171.273 48.088 170.633 48.984C170.036 49.88 168.99 50.6907 167.497 51.416C164.98 52.6107 161.716 53.5707 157.705 54.296C153.694 54.9787 149.748 55.32 145.865 55.32C140.489 55.32 135.988 54.7227 132.361 53.528C128.734 52.2907 126.025 50.6053 124.233 48.472C122.484 46.3387 121.609 43.928 121.609 41.24C121.609 37.5707 122.782 34.456 125.129 31.896C127.518 29.2933 131.017 27.416 135.625 26.264C133.108 25.5387 131.166 24.2587 129.801 22.424C128.478 20.5893 127.817 18.5413 127.817 16.28C127.817 13.208 128.777 10.4987 130.697 8.152C132.66 5.76266 135.284 3.928 138.569 2.648C141.854 1.368 145.46 0.727997 149.385 0.727997C154.676 0.727997 158.644 1.88 161.289 4.184C163.934 6.44533 165.257 9.38933 165.257 13.016C165.257 15.5333 164.788 17.5813 163.849 19.16C162.953 20.696 161.652 21.464 159.945 21.464C158.75 21.464 157.812 21.208 157.129 20.696C156.446 20.1413 156.105 19.3307 156.105 18.264C156.105 17.5387 156.212 16.7493 156.425 15.896C156.638 14.488 156.745 13.528 156.745 13.016C156.745 11.48 156.169 10.2427 155.017 9.304C153.865 8.32266 151.945 7.832 149.257 7.832C145.63 7.832 142.729 8.6 140.553 10.136C138.377 11.672 137.289 13.7413 137.289 16.344C137.289 18.3493 138.1 20.0133 139.721 21.336C141.385 22.616 144.073 23.32 147.785 23.448C148.724 23.4907 149.385 23.704 149.769 24.088C150.153 24.472 150.345 25.112 150.345 26.008C150.345 28.824 149.065 30.2533 146.505 30.296C142.964 30.3813 140.02 30.872 137.673 31.768C135.369 32.664 133.684 33.816 132.617 35.224C131.593 36.5893 131.081 38.0613 131.081 39.64C131.081 42.2853 132.318 44.2907 134.793 45.656C137.268 46.9787 141.193 47.64 146.569 47.64C150.11 47.64 153.844 47.2347 157.769 46.424C161.737 45.5707 165.129 44.5467 167.945 43.352ZM226.284 40.728C226.839 40.728 227.265 40.984 227.564 41.496C227.905 42.008 228.076 42.712 228.076 43.608C228.076 45.272 227.671 46.5947 226.86 47.576C224.812 50.0507 222.743 51.9707 220.652 53.336C218.561 54.6587 216.087 55.32 213.228 55.32C210.455 55.32 208.087 54.5733 206.124 53.08C204.204 51.5867 202.369 49.0267 200.62 45.4C199.212 42.4987 198.103 40.3653 197.292 39C196.481 37.592 195.671 36.5893 194.86 35.992C194.092 35.3947 193.132 35.032 191.98 34.904C191.809 35.8 191.319 38.616 190.508 43.352C190.167 45.4853 189.953 46.7867 189.868 47.256C189.441 49.8587 188.588 51.864 187.308 53.272C186.028 54.6373 184.087 55.32 181.484 55.32C178.625 55.32 176.087 54.488 173.868 52.824C171.692 51.1173 170.007 48.7707 168.812 45.784C167.617 42.7547 167.02 39.32 167.02 35.48C167.02 28.312 168.257 22.1253 170.732 16.92C173.249 11.7147 176.748 7.74667 181.228 5.016C185.751 2.24267 190.956 0.855999 196.844 0.855999C200.94 0.855999 204.375 1.47467 207.148 2.712C209.921 3.94933 211.969 5.656 213.292 7.832C214.657 10.008 215.34 12.4613 215.34 15.192C215.34 17.5813 214.764 19.928 213.612 22.232C212.503 24.4933 210.817 26.4987 208.556 28.248C206.295 29.9973 203.543 31.2987 200.3 32.152C202.348 32.7067 203.927 33.6027 205.036 34.84C206.145 36.0773 207.255 37.8907 208.364 40.28C209.559 42.84 210.732 44.7173 211.884 45.912C213.079 47.1067 214.444 47.704 215.98 47.704C217.345 47.704 218.647 47.256 219.884 46.36C221.121 45.4213 222.679 43.8427 224.556 41.624C225.068 41.0267 225.644 40.728 226.284 40.728ZM183.148 34.84C181.697 34.84 180.695 34.4987 180.14 33.816C179.628 33.1333 179.372 32.3653 179.372 31.512C179.372 30.488 179.692 29.6773 180.332 29.08C181.015 28.4827 181.783 28.184 182.636 28.184H184.236C184.919 24.0027 185.559 20.3973 186.156 17.368C186.711 14.5947 188.503 13.208 191.532 13.208C193.964 13.208 195.18 14.296 195.18 16.472C195.18 16.9413 195.159 17.304 195.116 17.56L193.196 28.184C195.5 28.056 197.591 27.5013 199.468 26.52C201.388 25.5387 202.903 24.1733 204.012 22.424C205.164 20.6747 205.74 18.6907 205.74 16.472C205.74 13.784 204.823 11.672 202.988 10.136C201.153 8.6 198.465 7.832 194.924 7.832C190.743 7.832 187.073 8.87733 183.916 10.968C180.801 13.016 178.369 16.088 176.62 20.184C174.871 24.2373 173.996 29.1867 173.996 35.032C173.996 37.7627 174.273 40.1093 174.828 42.072C175.383 44.0347 176.065 45.5067 176.876 46.488C177.687 47.4693 178.455 47.96 179.18 47.96C179.735 47.96 180.183 47.6827 180.524 47.128C180.908 46.5733 181.207 45.6773 181.42 44.44L183.148 34.84ZM277.925 40.664C278.181 40.5787 278.565 40.536 279.077 40.536C280.527 40.536 281.253 41.4747 281.253 43.352C281.253 44.376 281.018 45.2507 280.549 45.976C280.122 46.6587 279.439 47.0853 278.501 47.256C274.618 47.9813 270.799 48.792 267.045 49.688L266.853 51.224C265.658 59.6293 263.269 65.8373 259.685 69.848C256.143 73.9013 251.706 75.928 246.373 75.928C242.831 75.928 240.079 75.0533 238.117 73.304C236.197 71.5973 235.237 69.4 235.237 66.712C235.237 62.232 237.242 58.2427 241.253 54.744C245.263 51.2453 251.343 48.152 259.493 45.464L260.773 36.44C260.943 35.416 261.157 34.0507 261.413 32.344C259.407 37.6347 256.847 41.5813 253.733 44.184C250.618 46.7867 247.141 48.088 243.301 48.088C239.631 48.088 236.837 46.9787 234.917 44.76C232.997 42.4987 232.037 39.5973 232.037 36.056C232.037 34.4773 232.207 32.7493 232.549 30.872C232.89 28.952 233.423 26.3707 234.149 23.128C234.789 20.184 235.258 17.8373 235.557 16.088C235.898 14.3387 236.069 12.7813 236.069 11.416C236.069 9.368 235.279 8.344 233.701 8.344C232.463 8.344 230.991 8.96266 229.285 10.2C227.621 11.3947 225.85 13.2507 223.973 15.768C223.375 16.5787 222.714 16.984 221.989 16.984C221.391 16.984 220.858 16.7067 220.389 16.152C219.962 15.5547 219.748 14.8933 219.748 14.168C219.748 12.8453 220.346 11.352 221.541 9.688C225.893 3.71466 230.991 0.727997 236.837 0.727997C239.439 0.727997 241.466 1.51733 242.917 3.096C244.41 4.67466 245.157 7 245.157 10.072C245.157 12.2907 244.943 14.5733 244.517 16.92C244.133 19.224 243.535 22.168 242.725 25.752C242.213 27.8853 241.829 29.6133 241.573 30.936C241.317 32.216 241.189 33.2827 241.189 34.136C241.189 36.312 241.573 37.8693 242.341 38.808C243.109 39.7467 244.453 40.216 246.373 40.216C248.677 40.216 251.023 38.9573 253.413 36.44C255.845 33.88 258.021 30.0187 259.941 24.856C261.903 19.6933 263.311 13.3787 264.165 5.912C264.378 4.03466 264.869 2.712 265.637 1.944C266.405 1.13333 267.514 0.727997 268.965 0.727997C271.951 0.727997 273.445 2.22133 273.445 5.208C273.445 5.72 273.423 6.12533 273.381 6.424C272.485 12.7813 271.653 18.52 270.885 23.64C270.458 26.712 269.989 29.8693 269.477 33.112C269.007 36.3547 268.538 39.64 268.069 42.968C271.183 42.1147 274.469 41.3467 277.925 40.664ZM258.533 52.184C248.207 55.768 243.045 60.12 243.045 65.24C243.045 66.4347 243.407 67.416 244.133 68.184C244.901 68.9947 245.967 69.4 247.333 69.4C253.263 69.4 256.975 63.8107 258.469 52.632L258.533 52.184Z"/>
</mask>
<path d="M51.574 1.88C52.8967 2.136 53.878 2.584 54.518 3.224C55.2007 3.864 55.542 4.61066 55.542 5.464C55.542 6.872 55.1367 7.896 54.326 8.536C53.558 9.176 52.3207 9.432 50.614 9.304C46.774 9.00533 43.766 8.81333 41.59 8.728C39.4567 8.6 36.6407 8.51466 33.142 8.472C31.5633 16.3227 30.1127 24.216 28.79 32.152C28.3207 35.0533 27.83 38.424 27.318 42.264C26.806 46.0613 26.4647 49.1333 26.294 51.48C26.2087 52.7173 25.6967 53.6773 24.758 54.36C23.8193 55 22.6887 55.32 21.366 55.32C19.958 55.32 18.87 54.9787 18.102 54.296C17.334 53.6133 16.95 52.7173 16.95 51.608C16.95 50.584 17.0993 48.8987 17.398 46.552C17.7393 44.1627 18.1233 41.6667 18.55 39.064C19.0193 36.4613 19.382 34.2 19.638 32.28C20.1073 29.0373 20.6407 25.816 21.238 22.616C21.8353 19.416 22.4327 16.3867 23.03 13.528C23.158 12.888 23.3073 12.1627 23.478 11.352C23.6487 10.4987 23.8407 9.56 24.054 8.536C19.8727 8.664 16.5873 9.00533 14.198 9.56C11.8087 10.1147 10.102 10.904 9.078 11.928C8.09667 12.9093 7.606 14.1893 7.606 15.768C7.606 17.2187 8.03267 18.6053 8.886 19.928C9.05667 20.2267 9.142 20.5467 9.142 20.888C9.142 21.6987 8.65133 22.4667 7.67 23.192C6.73133 23.8747 5.75 24.216 4.726 24.216C4.00067 24.216 3.40333 24.0027 2.934 23.576C2.08067 22.8507 1.37667 21.8267 0.822 20.504C0.267333 19.1387 -0.00999999 17.6027 -0.00999999 15.896C-0.00999999 12.2693 1.16333 9.368 3.51 7.192C5.89933 4.97333 9.50467 3.352 14.326 2.328C19.19 1.304 25.4193 0.791996 33.014 0.791996C37.7073 0.791996 41.4407 0.87733 44.214 1.048C47.03 1.21866 49.4833 1.496 51.574 1.88ZM73.991 1.112C75.1003 1.112 76.039 1.38933 76.807 1.944C77.575 2.456 77.959 3.096 77.959 3.864C77.959 5.22933 77.5323 6.33867 76.679 7.192C75.8257 8.00266 74.6097 8.408 73.031 8.408C70.5563 8.408 68.679 8.42933 67.399 8.472C67.3137 8.984 66.9297 11.288 66.247 15.384C65.479 19.9493 65.0097 22.744 64.839 23.768L63.495 32.152C62.5563 38.424 61.8097 43.672 61.255 47.896C62.151 47.8533 63.367 47.832 64.903 47.832C67.1643 47.832 68.7003 48.1307 69.511 48.728C70.3217 49.3253 70.727 50.2213 70.727 51.416C70.727 52.5253 70.279 53.464 69.383 54.232C68.5297 55 67.3137 55.384 65.735 55.384C64.6683 55.384 62.983 55.3413 60.679 55.256C58.5457 55.1707 57.1377 55.128 56.455 55.128C53.767 55.128 50.823 55.3627 47.623 55.832C46.215 56.0453 45.2123 56.152 44.615 56.152C43.6763 56.152 42.887 55.896 42.247 55.384C41.607 54.872 41.287 54.1253 41.287 53.144C41.287 51.608 41.9697 50.4133 43.335 49.56C44.7003 48.7067 46.6203 48.2587 49.095 48.216L52.103 48.152L52.295 46.744C53.319 39.9173 54.0657 35.096 54.535 32.28L55.943 23.896C56.7963 18.9467 57.5643 13.848 58.247 8.6L52.871 8.664C51.335 8.664 50.2683 8.42933 49.671 7.96C49.1163 7.448 48.839 6.744 48.839 5.848C48.839 2.94667 50.9297 1.38933 55.111 1.176C57.0737 1.09066 59.463 1.048 62.279 1.048L73.991 1.112ZM126.095 40.728C126.649 40.728 127.076 40.984 127.375 41.496C127.716 42.008 127.887 42.712 127.887 43.608C127.887 45.272 127.481 46.5947 126.671 47.576C124.58 50.0507 122.511 51.9707 120.463 53.336C118.415 54.6587 116.132 55.32 113.615 55.32C109.817 55.32 106.937 54.1893 104.975 51.928C103.055 49.6667 101.497 46.36 100.303 42.008L98.1265 34.072L83.0225 52.76C82.1692 53.8267 81.2945 54.5307 80.3985 54.872C79.5025 55.1707 78.4572 55.32 77.2625 55.32C76.0678 55.32 75.0652 55.1067 74.2545 54.68C73.4865 54.2107 73.1025 53.5707 73.1025 52.76C73.1025 51.6933 73.7212 50.4773 74.9585 49.112L95.6945 25.496L93.6465 18.008C92.6652 14.5093 91.5772 12.056 90.3825 10.648C89.1878 9.24 87.8225 8.536 86.2865 8.536C84.0252 8.536 81.3798 10.1787 78.3505 13.464C77.8385 14.0187 77.2625 14.296 76.6225 14.296C75.9825 14.296 75.4278 14.0613 74.9585 13.592C74.5318 13.08 74.3185 12.44 74.3185 11.672C74.3185 10.392 74.9372 9.00533 76.1745 7.512C77.9238 5.464 79.8225 3.82133 81.8705 2.584C83.9185 1.34666 86.3505 0.727997 89.1665 0.727997C92.1958 0.727997 94.6918 1.688 96.6545 3.608C98.6172 5.48533 100.175 8.536 101.327 12.76L102.607 17.24L113.807 3.608C114.66 2.584 115.535 1.85867 116.431 1.432C117.327 1.00533 118.415 0.791996 119.695 0.791996C120.847 0.791996 121.743 1.00533 122.383 1.432C123.065 1.85867 123.407 2.456 123.407 3.224C123.407 4.248 122.831 5.42133 121.679 6.744L105.039 25.944L108.687 39C109.327 41.2613 109.903 42.9893 110.415 44.184C110.927 45.3787 111.545 46.2747 112.271 46.872C113.039 47.4267 114.041 47.704 115.279 47.704C116.601 47.704 117.967 47.2347 119.375 46.296C120.825 45.3573 122.489 43.8 124.367 41.624C124.879 41.0267 125.455 40.728 126.095 40.728ZM167.945 43.352C168.585 43.096 169.118 42.968 169.545 42.968C170.228 42.968 170.74 43.224 171.081 43.736C171.422 44.248 171.593 44.9093 171.593 45.72C171.593 47 171.273 48.088 170.633 48.984C170.036 49.88 168.99 50.6907 167.497 51.416C164.98 52.6107 161.716 53.5707 157.705 54.296C153.694 54.9787 149.748 55.32 145.865 55.32C140.489 55.32 135.988 54.7227 132.361 53.528C128.734 52.2907 126.025 50.6053 124.233 48.472C122.484 46.3387 121.609 43.928 121.609 41.24C121.609 37.5707 122.782 34.456 125.129 31.896C127.518 29.2933 131.017 27.416 135.625 26.264C133.108 25.5387 131.166 24.2587 129.801 22.424C128.478 20.5893 127.817 18.5413 127.817 16.28C127.817 13.208 128.777 10.4987 130.697 8.152C132.66 5.76266 135.284 3.928 138.569 2.648C141.854 1.368 145.46 0.727997 149.385 0.727997C154.676 0.727997 158.644 1.88 161.289 4.184C163.934 6.44533 165.257 9.38933 165.257 13.016C165.257 15.5333 164.788 17.5813 163.849 19.16C162.953 20.696 161.652 21.464 159.945 21.464C158.75 21.464 157.812 21.208 157.129 20.696C156.446 20.1413 156.105 19.3307 156.105 18.264C156.105 17.5387 156.212 16.7493 156.425 15.896C156.638 14.488 156.745 13.528 156.745 13.016C156.745 11.48 156.169 10.2427 155.017 9.304C153.865 8.32266 151.945 7.832 149.257 7.832C145.63 7.832 142.729 8.6 140.553 10.136C138.377 11.672 137.289 13.7413 137.289 16.344C137.289 18.3493 138.1 20.0133 139.721 21.336C141.385 22.616 144.073 23.32 147.785 23.448C148.724 23.4907 149.385 23.704 149.769 24.088C150.153 24.472 150.345 25.112 150.345 26.008C150.345 28.824 149.065 30.2533 146.505 30.296C142.964 30.3813 140.02 30.872 137.673 31.768C135.369 32.664 133.684 33.816 132.617 35.224C131.593 36.5893 131.081 38.0613 131.081 39.64C131.081 42.2853 132.318 44.2907 134.793 45.656C137.268 46.9787 141.193 47.64 146.569 47.64C150.11 47.64 153.844 47.2347 157.769 46.424C161.737 45.5707 165.129 44.5467 167.945 43.352ZM226.284 40.728C226.839 40.728 227.265 40.984 227.564 41.496C227.905 42.008 228.076 42.712 228.076 43.608C228.076 45.272 227.671 46.5947 226.86 47.576C224.812 50.0507 222.743 51.9707 220.652 53.336C218.561 54.6587 216.087 55.32 213.228 55.32C210.455 55.32 208.087 54.5733 206.124 53.08C204.204 51.5867 202.369 49.0267 200.62 45.4C199.212 42.4987 198.103 40.3653 197.292 39C196.481 37.592 195.671 36.5893 194.86 35.992C194.092 35.3947 193.132 35.032 191.98 34.904C191.809 35.8 191.319 38.616 190.508 43.352C190.167 45.4853 189.953 46.7867 189.868 47.256C189.441 49.8587 188.588 51.864 187.308 53.272C186.028 54.6373 184.087 55.32 181.484 55.32C178.625 55.32 176.087 54.488 173.868 52.824C171.692 51.1173 170.007 48.7707 168.812 45.784C167.617 42.7547 167.02 39.32 167.02 35.48C167.02 28.312 168.257 22.1253 170.732 16.92C173.249 11.7147 176.748 7.74667 181.228 5.016C185.751 2.24267 190.956 0.855999 196.844 0.855999C200.94 0.855999 204.375 1.47467 207.148 2.712C209.921 3.94933 211.969 5.656 213.292 7.832C214.657 10.008 215.34 12.4613 215.34 15.192C215.34 17.5813 214.764 19.928 213.612 22.232C212.503 24.4933 210.817 26.4987 208.556 28.248C206.295 29.9973 203.543 31.2987 200.3 32.152C202.348 32.7067 203.927 33.6027 205.036 34.84C206.145 36.0773 207.255 37.8907 208.364 40.28C209.559 42.84 210.732 44.7173 211.884 45.912C213.079 47.1067 214.444 47.704 215.98 47.704C217.345 47.704 218.647 47.256 219.884 46.36C221.121 45.4213 222.679 43.8427 224.556 41.624C225.068 41.0267 225.644 40.728 226.284 40.728ZM183.148 34.84C181.697 34.84 180.695 34.4987 180.14 33.816C179.628 33.1333 179.372 32.3653 179.372 31.512C179.372 30.488 179.692 29.6773 180.332 29.08C181.015 28.4827 181.783 28.184 182.636 28.184H184.236C184.919 24.0027 185.559 20.3973 186.156 17.368C186.711 14.5947 188.503 13.208 191.532 13.208C193.964 13.208 195.18 14.296 195.18 16.472C195.18 16.9413 195.159 17.304 195.116 17.56L193.196 28.184C195.5 28.056 197.591 27.5013 199.468 26.52C201.388 25.5387 202.903 24.1733 204.012 22.424C205.164 20.6747 205.74 18.6907 205.74 16.472C205.74 13.784 204.823 11.672 202.988 10.136C201.153 8.6 198.465 7.832 194.924 7.832C190.743 7.832 187.073 8.87733 183.916 10.968C180.801 13.016 178.369 16.088 176.62 20.184C174.871 24.2373 173.996 29.1867 173.996 35.032C173.996 37.7627 174.273 40.1093 174.828 42.072C175.383 44.0347 176.065 45.5067 176.876 46.488C177.687 47.4693 178.455 47.96 179.18 47.96C179.735 47.96 180.183 47.6827 180.524 47.128C180.908 46.5733 181.207 45.6773 181.42 44.44L183.148 34.84ZM277.925 40.664C278.181 40.5787 278.565 40.536 279.077 40.536C280.527 40.536 281.253 41.4747 281.253 43.352C281.253 44.376 281.018 45.2507 280.549 45.976C280.122 46.6587 279.439 47.0853 278.501 47.256C274.618 47.9813 270.799 48.792 267.045 49.688L266.853 51.224C265.658 59.6293 263.269 65.8373 259.685 69.848C256.143 73.9013 251.706 75.928 246.373 75.928C242.831 75.928 240.079 75.0533 238.117 73.304C236.197 71.5973 235.237 69.4 235.237 66.712C235.237 62.232 237.242 58.2427 241.253 54.744C245.263 51.2453 251.343 48.152 259.493 45.464L260.773 36.44C260.943 35.416 261.157 34.0507 261.413 32.344C259.407 37.6347 256.847 41.5813 253.733 44.184C250.618 46.7867 247.141 48.088 243.301 48.088C239.631 48.088 236.837 46.9787 234.917 44.76C232.997 42.4987 232.037 39.5973 232.037 36.056C232.037 34.4773 232.207 32.7493 232.549 30.872C232.89 28.952 233.423 26.3707 234.149 23.128C234.789 20.184 235.258 17.8373 235.557 16.088C235.898 14.3387 236.069 12.7813 236.069 11.416C236.069 9.368 235.279 8.344 233.701 8.344C232.463 8.344 230.991 8.96266 229.285 10.2C227.621 11.3947 225.85 13.2507 223.973 15.768C223.375 16.5787 222.714 16.984 221.989 16.984C221.391 16.984 220.858 16.7067 220.389 16.152C219.962 15.5547 219.748 14.8933 219.748 14.168C219.748 12.8453 220.346 11.352 221.541 9.688C225.893 3.71466 230.991 0.727997 236.837 0.727997C239.439 0.727997 241.466 1.51733 242.917 3.096C244.41 4.67466 245.157 7 245.157 10.072C245.157 12.2907 244.943 14.5733 244.517 16.92C244.133 19.224 243.535 22.168 242.725 25.752C242.213 27.8853 241.829 29.6133 241.573 30.936C241.317 32.216 241.189 33.2827 241.189 34.136C241.189 36.312 241.573 37.8693 242.341 38.808C243.109 39.7467 244.453 40.216 246.373 40.216C248.677 40.216 251.023 38.9573 253.413 36.44C255.845 33.88 258.021 30.0187 259.941 24.856C261.903 19.6933 263.311 13.3787 264.165 5.912C264.378 4.03466 264.869 2.712 265.637 1.944C266.405 1.13333 267.514 0.727997 268.965 0.727997C271.951 0.727997 273.445 2.22133 273.445 5.208C273.445 5.72 273.423 6.12533 273.381 6.424C272.485 12.7813 271.653 18.52 270.885 23.64C270.458 26.712 269.989 29.8693 269.477 33.112C269.007 36.3547 268.538 39.64 268.069 42.968C271.183 42.1147 274.469 41.3467 277.925 40.664ZM258.533 52.184C248.207 55.768 243.045 60.12 243.045 65.24C243.045 66.4347 243.407 67.416 244.133 68.184C244.901 68.9947 245.967 69.4 247.333 69.4C253.263 69.4 256.975 63.8107 258.469 52.632L258.533 52.184Z" fill="url(#paint0_linear_1_2)"/>
<path d="M51.574 1.88L51.764 0.898173L51.7547 0.89645L51.574 1.88ZM54.518 3.224L53.8109 3.9311L53.8223 3.94251L53.8341 3.95354L54.518 3.224ZM54.326 8.536L53.7064 7.75112L53.696 7.75931L53.6858 7.76778L54.326 8.536ZM50.614 9.304L50.5365 10.301L50.5392 10.3012L50.614 9.304ZM41.59 8.728L41.5301 9.7262L41.5405 9.72682L41.5508 9.72723L41.59 8.728ZM33.142 8.472L33.1542 7.47207L32.3251 7.46196L32.1616 8.27486L33.142 8.472ZM28.79 32.152L27.8036 31.9876L27.8028 31.9923L28.79 32.152ZM27.318 42.264L28.309 42.3976L28.3092 42.3962L27.318 42.264ZM26.294 51.48L25.2966 51.4075L25.2964 51.4112L26.294 51.48ZM24.758 54.36L25.3213 55.1862L25.3339 55.1777L25.3462 55.1687L24.758 54.36ZM18.102 54.296L18.7664 53.5486L18.102 54.296ZM17.398 46.552L16.4081 46.4106L16.407 46.4182L16.406 46.4257L17.398 46.552ZM18.55 39.064L17.5659 38.8865L17.5645 38.8944L17.5632 38.9022L18.55 39.064ZM19.638 32.28L18.6483 32.1367L18.6468 32.1478L19.638 32.28ZM21.238 22.616L20.255 22.4325L21.238 22.616ZM23.03 13.528L24.0089 13.7325L24.0106 13.7241L23.03 13.528ZM23.478 11.352L24.4566 11.558L24.4586 11.5481L23.478 11.352ZM24.054 8.536L25.033 8.73995L25.2918 7.49764L24.0234 7.53647L24.054 8.536ZM14.198 9.56L13.9719 8.5859L14.198 9.56ZM9.078 11.928L8.37089 11.2209L9.078 11.928ZM8.886 19.928L9.75424 19.4319L9.74089 19.4085L9.7263 19.3859L8.886 19.928ZM7.67 23.192L8.25819 24.0008L8.26439 23.9962L7.67 23.192ZM2.934 23.576L3.60667 22.8361L3.59434 22.8249L3.58165 22.8141L2.934 23.576ZM0.822 20.504L-0.104525 20.8804L-0.100194 20.8907L0.822 20.504ZM3.51 7.192L4.18994 7.92527L4.19045 7.92479L3.51 7.192ZM14.326 2.328L14.12 1.34945L14.1182 1.34982L14.326 2.328ZM44.214 1.048L44.1526 2.04611L44.1535 2.04616L44.214 1.048ZM51.384 2.86178C52.6009 3.09731 53.3653 3.48555 53.8109 3.9311L55.2251 2.51689C54.3907 1.68244 53.1924 1.17468 51.764 0.898217L51.384 2.86178ZM53.8341 3.95354C54.3367 4.42478 54.542 4.9154 54.542 5.464H56.542C56.542 4.30593 56.0646 3.30322 55.2019 2.49446L53.8341 3.95354ZM54.542 5.464C54.542 6.68445 54.1971 7.36371 53.7064 7.75112L54.9456 9.32088C56.0763 8.42828 56.542 7.05955 56.542 5.464H54.542ZM53.6858 7.76778C53.2189 8.15687 52.308 8.42824 50.6888 8.3068L50.5392 10.3012C52.3334 10.4358 53.8971 10.1951 54.9662 9.30422L53.6858 7.76778ZM50.6915 8.30701C46.8469 8.00798 43.8241 7.81484 41.6292 7.72877L41.5508 9.72723C43.7079 9.81182 46.7012 10.0027 50.5365 10.301L50.6915 8.30701ZM41.6499 7.72979C39.4939 7.60044 36.6602 7.51483 33.1542 7.47207L33.1298 9.47192C36.6212 9.5145 39.4194 9.59956 41.5301 9.7262L41.6499 7.72979ZM32.1616 8.27486C30.5808 16.1365 29.1281 24.0407 27.8036 31.9876L29.7764 32.3164C31.0972 24.3913 32.5459 16.5089 34.1224 8.66914L32.1616 8.27486ZM27.8028 31.9923C27.3316 34.9051 26.8396 38.2853 26.3268 42.1318L28.3092 42.3962C28.8204 38.5627 29.3097 35.2015 29.7772 32.3117L27.8028 31.9923ZM26.327 42.1304C25.8137 45.9371 25.4694 49.0318 25.2966 51.4075L27.2914 51.5525C27.4599 49.2349 27.7983 46.1855 28.309 42.3976L26.327 42.1304ZM25.2964 51.4112C25.2298 52.3766 24.8512 53.0557 24.1698 53.5513L25.3462 55.1687C26.5421 54.2989 27.1875 53.0581 27.2916 51.5488L25.2964 51.4112ZM24.1947 53.5338C23.448 54.0429 22.5216 54.32 21.366 54.32V56.32C22.8558 56.32 24.1907 55.9571 25.3213 55.1862L24.1947 53.5338ZM21.366 54.32C20.1117 54.32 19.293 54.0167 18.7664 53.5486L17.4376 55.0434C18.447 55.9406 19.8043 56.32 21.366 56.32V54.32ZM18.7664 53.5486C18.2303 53.0721 17.95 52.4573 17.95 51.608H15.95C15.95 52.9774 16.4377 54.1546 17.4376 55.0434L18.7664 53.5486ZM17.95 51.608C17.95 50.6531 18.0916 49.0229 18.39 46.6783L16.406 46.4257C16.1071 48.7745 15.95 50.5149 15.95 51.608H17.95ZM18.388 46.6934C18.7282 44.3115 19.1112 41.8223 19.5368 39.2258L17.5632 38.9022C17.1355 41.5111 16.7504 44.0139 16.4081 46.4106L18.388 46.6934ZM19.5341 39.2415C20.0053 36.6288 20.3706 34.3516 20.6292 32.4122L18.6468 32.1478C18.3934 34.0484 18.0334 36.2939 17.5659 38.8865L19.5341 39.2415ZM20.6277 32.4232C21.0951 29.194 21.6262 25.986 22.221 22.7995L20.255 22.4325C19.6551 25.646 19.1196 28.8807 18.6483 32.1368L20.6277 32.4232ZM22.221 22.7995C22.8172 19.6057 23.4131 16.5835 24.0089 13.7325L22.0511 13.3235C21.4522 16.1899 20.8535 19.2263 20.255 22.4325L22.221 22.7995ZM24.0106 13.7241C24.1378 13.0882 24.2864 12.3662 24.4566 11.558L22.4995 11.146C22.3283 11.9591 22.1782 12.6878 22.0494 13.3319L24.0106 13.7241ZM24.4586 11.5481C24.6286 10.6979 24.8201 9.76184 25.033 8.73995L23.075 8.33205C22.8612 9.35815 22.6687 10.2995 22.4974 11.1559L24.4586 11.5481ZM24.0234 7.53647C19.8153 7.66529 16.4547 8.00953 13.9719 8.5859L14.4241 10.5341C16.72 10.0011 19.93 9.66271 24.0846 9.53553L24.0234 7.53647ZM13.9719 8.5859C11.5124 9.15684 9.5899 10.0019 8.37089 11.2209L9.78511 12.6351C10.6141 11.8061 12.1049 11.0725 14.4241 10.5341L13.9719 8.5859ZM8.37089 11.2209C7.17571 12.4161 6.606 13.9638 6.606 15.768H8.606C8.606 14.4149 9.01762 13.4026 9.78511 12.6351L8.37089 11.2209ZM6.606 15.768C6.606 17.4273 7.09736 19.0002 8.0457 20.4701L9.7263 19.3859C8.96798 18.2105 8.606 17.01 8.606 15.768H6.606ZM8.01776 20.4241C8.10279 20.5729 8.142 20.7221 8.142 20.888H10.142C10.142 20.3712 10.0105 19.8804 9.75424 19.4319L8.01776 20.4241ZM8.142 20.888C8.142 21.2455 7.93561 21.7522 7.07561 22.3878L8.26439 23.9962C9.36706 23.1812 10.142 22.1518 10.142 20.888H8.142ZM7.08183 22.3833C6.2903 22.9589 5.51104 23.216 4.726 23.216V25.216C5.98897 25.216 7.17237 24.7904 8.25817 24.0007L7.08183 22.3833ZM4.726 23.216C4.2112 23.216 3.86548 23.0713 3.60667 22.8361L2.26133 24.3159C2.94119 24.934 3.79014 25.216 4.726 25.216V23.216ZM3.58165 22.8141C2.87686 22.215 2.25464 21.3345 1.74419 20.1173L-0.100194 20.8907C0.498693 22.3188 1.28448 23.4863 2.28635 24.3379L3.58165 22.8141ZM1.74847 20.1276C1.24941 18.8992 0.99 17.4938 0.99 15.896H-1.01C-1.01 17.7115 -0.714745 19.3781 -0.104467 20.8804L1.74847 20.1276ZM0.99 15.896C0.99 12.5068 2.07551 9.88592 4.18994 7.92527L2.83006 6.45873C0.251154 8.85008 -1.01 12.0319 -1.01 15.896H0.99ZM4.19045 7.92479C6.39614 5.87666 9.8055 4.31041 14.5338 3.30618L14.1182 1.34982C9.20383 2.39359 5.40253 4.07001 2.82955 6.4592L4.19045 7.92479ZM14.532 3.30655C19.3027 2.30219 25.4564 1.792 33.014 1.792V-0.208004C25.3823 -0.208004 19.0773 0.305809 14.12 1.34945L14.532 3.30655ZM33.014 1.792C37.6987 1.792 41.4088 1.87726 44.1526 2.04611L44.2754 0.0498847C41.4725 -0.122604 37.716 -0.208004 33.014 -0.208004V1.792ZM44.1535 2.04616C46.9414 2.21513 49.3528 2.48875 51.3933 2.86354L51.7547 0.89645C49.6139 0.503242 47.1186 0.222201 44.2745 0.0498281L44.1535 2.04616ZM73.991 1.112L73.9855 2.112H73.991V1.112ZM76.807 1.944L76.2215 2.75468L76.2367 2.76565L76.2523 2.77605L76.807 1.944ZM76.679 7.192L77.3678 7.917L77.377 7.90817L77.3861 7.89911L76.679 7.192ZM67.399 8.472L67.3657 7.47255L66.5472 7.49983L66.4126 8.3076L67.399 8.472ZM66.247 15.384L67.2331 15.5499L67.2334 15.5484L66.247 15.384ZM64.839 23.768L63.8526 23.6036L63.8516 23.6097L64.839 23.768ZM63.495 32.152L62.5076 31.9937L62.506 32.004L63.495 32.152ZM61.255 47.896L60.2635 47.7658L60.1078 48.9518L61.3026 48.8949L61.255 47.896ZM69.383 54.232L68.7322 53.4727L68.723 53.4806L68.714 53.4887L69.383 54.232ZM60.679 55.256L60.639 56.2552L60.642 56.2553L60.679 55.256ZM47.623 55.832L47.4779 54.8426L47.4732 54.8433L47.623 55.832ZM42.247 55.384L42.8717 54.6031L42.247 55.384ZM43.335 49.56L43.865 50.408L43.335 49.56ZM49.095 48.216L49.1122 49.2159L49.1163 49.2158L49.095 48.216ZM52.103 48.152L52.1243 49.1518L52.9784 49.1336L53.0938 48.2871L52.103 48.152ZM52.295 46.744L51.306 46.5956L51.3042 46.6089L52.295 46.744ZM54.535 32.28L53.5488 32.1144L53.5486 32.1156L54.535 32.28ZM55.943 23.896L54.9575 23.7261L54.9568 23.7304L55.943 23.896ZM58.247 8.6L59.2386 8.72899L59.3873 7.58635L58.2351 7.60007L58.247 8.6ZM52.871 8.664V9.66407L52.8829 9.66393L52.871 8.664ZM49.671 7.96L48.9927 8.6948L49.0219 8.72176L49.0532 8.74632L49.671 7.96ZM55.111 1.176L55.0676 0.176914L55.06 0.177298L55.111 1.176ZM62.279 1.048L62.2845 0.0479965H62.279V1.048ZM73.991 2.112C74.9272 2.112 75.6517 2.34315 76.2215 2.75468L77.3925 1.13332C76.4263 0.435508 75.2735 0.111996 73.991 0.111996V2.112ZM76.2523 2.77605C76.8066 3.14557 76.959 3.50106 76.959 3.864H78.959C78.959 2.69093 78.3434 1.76642 77.3617 1.11195L76.2523 2.77605ZM76.959 3.864C76.959 5.00208 76.6124 5.84434 75.9719 6.48489L77.3861 7.89911C78.4522 6.83299 78.959 5.45658 78.959 3.864H76.959ZM75.9902 6.467C75.3788 7.04784 74.4428 7.408 73.031 7.408V9.408C74.7765 9.408 76.2725 8.95749 77.3678 7.917L75.9902 6.467ZM73.031 7.408C70.5534 7.408 68.6627 7.42932 67.3657 7.47255L67.4323 9.47144C68.6953 9.42934 70.5593 9.408 73.031 9.408V7.408ZM66.4126 8.3076C66.3984 8.39298 66.4097 8.32522 66.3931 8.4246C66.3821 8.49063 66.3799 8.50357 66.3666 8.5836C66.3649 8.5936 66.3645 8.59621 66.3628 8.60643C66.354 8.65913 66.3677 8.57699 66.3589 8.62991C66.3589 8.62991 66.3509 8.67797 66.3507 8.67885C66.3349 8.77399 66.3495 8.68596 66.3331 8.7846C66.3249 8.83392 66.332 8.79121 66.3236 8.84141C66.3148 8.89453 66.3227 8.84686 66.3137 8.90085C66.3025 8.96835 66.3199 8.86383 66.3086 8.93155C66.304 8.9595 66.3081 8.93474 66.3034 8.96291C66.294 9.01924 66.3021 8.9704 66.2926 9.0276C66.2826 9.08771 66.2916 9.03392 66.2814 9.09491C66.2809 9.09777 66.2804 9.10064 66.28 9.10351C66.2795 9.10638 66.279 9.10926 66.2785 9.11215C66.2721 9.15064 66.282 9.09101 66.2756 9.12955C66.273 9.14518 66.2753 9.13143 66.2727 9.14712C66.2722 9.15006 66.2717 9.15301 66.2712 9.15596C66.2707 9.15892 66.2702 9.16188 66.2697 9.16485C66.2539 9.25984 66.2736 9.14155 66.2576 9.23741C66.2571 9.24049 66.2566 9.24357 66.2561 9.24667C66.2556 9.24976 66.2551 9.25286 66.2545 9.25596C66.254 9.25907 66.2535 9.26218 66.253 9.2653C66.2525 9.26842 66.252 9.27154 66.2514 9.27468C66.2509 9.27781 66.2504 9.28095 66.2499 9.2841C66.2493 9.28724 66.2488 9.29039 66.2483 9.29356C66.2478 9.29672 66.2472 9.29988 66.2467 9.30306C66.2462 9.30623 66.2456 9.30941 66.2451 9.3126C66.2446 9.31579 66.244 9.31898 66.2435 9.32218C66.243 9.32538 66.2424 9.32859 66.2419 9.33181C66.2414 9.33502 66.2408 9.33824 66.2403 9.34147C66.2398 9.3447 66.2392 9.34793 66.2387 9.35118C66.2358 9.36856 66.2383 9.35328 66.2354 9.37071C66.2349 9.37398 66.2343 9.37726 66.2338 9.38054C66.2332 9.38382 66.2327 9.38711 66.2321 9.39041C66.2316 9.39371 66.231 9.39701 66.2305 9.40032C66.2299 9.40363 66.2294 9.40695 66.2288 9.41027C66.2283 9.4136 66.2277 9.41693 66.2272 9.42027C66.2266 9.4236 66.2261 9.42695 66.2255 9.4303C66.2249 9.43365 66.2244 9.43701 66.2238 9.44038C66.2233 9.44374 66.2227 9.44711 66.2221 9.45049C66.2191 9.46851 66.2217 9.45277 66.2187 9.47085C66.2064 9.54464 66.2035 9.5623 66.1906 9.6396C66.19 9.64322 66.1894 9.64686 66.1888 9.65049C66.1882 9.65413 66.1876 9.65778 66.187 9.66143C66.1864 9.66508 66.1858 9.66874 66.1851 9.67241C66.1845 9.67607 66.1839 9.67975 66.1833 9.68343C66.1827 9.68711 66.1821 9.69079 66.1815 9.69449C66.1808 9.69818 66.1802 9.70188 66.1796 9.70559C66.178 9.71547 66.1775 9.71797 66.1759 9.72791C66.1753 9.73165 66.1746 9.73539 66.174 9.73913C66.1734 9.74288 66.1728 9.74664 66.1721 9.7504C66.1715 9.75416 66.1709 9.75793 66.1703 9.7617C66.1696 9.76548 66.169 9.76926 66.1684 9.77305C66.1667 9.78316 66.1663 9.78571 66.1646 9.79587C66.156 9.84706 66.1693 9.7676 66.1607 9.81885C66.1607 9.81885 66.1297 10.0051 66.1291 10.0086C66.1145 10.0964 66.1109 10.1175 66.0957 10.2088C66.0805 10.3002 66.0938 10.2207 66.0784 10.3129C66.0625 10.4081 66.0766 10.3236 66.0606 10.4196C66.0526 10.4676 66.0596 10.4257 66.0516 10.4739C66.0455 10.5105 66.0531 10.4647 66.047 10.5013C66.0462 10.5059 66.0455 10.5105 66.0447 10.5151C66.0439 10.5197 66.0432 10.5243 66.0424 10.5289C66.026 10.6272 66.0403 10.5417 66.0237 10.6408C66.0068 10.7427 66.0027 10.7673 65.9851 10.8726C65.9807 10.8989 65.9846 10.8759 65.9802 10.9023C65.9793 10.9073 65.9785 10.9122 65.9777 10.9172C65.9768 10.9222 65.976 10.9272 65.9752 10.9322C65.9743 10.9372 65.9735 10.9422 65.9727 10.9472C65.9718 10.9522 65.971 10.9572 65.9702 10.9622C65.9635 11.0024 65.9718 10.9522 65.9651 10.9924C65.9561 11.0466 65.9641 10.9989 65.955 11.0533C65.9437 11.1213 65.9612 11.0159 65.9499 11.084C65.9453 11.1114 65.9493 11.0874 65.9447 11.1148C65.9356 11.1698 65.9436 11.1218 65.9344 11.1771C65.925 11.233 65.9333 11.1837 65.9239 11.2399C65.923 11.2452 65.9221 11.2504 65.9212 11.2557C65.9204 11.261 65.9195 11.2663 65.9186 11.2716C65.9139 11.2999 65.918 11.2751 65.9133 11.3034C65.9038 11.3602 65.9121 11.3106 65.9026 11.3676C65.8833 11.4837 65.9004 11.3809 65.8809 11.4979C65.8711 11.5564 65.8797 11.5053 65.8699 11.5641C65.86 11.6235 65.8687 11.5712 65.8587 11.6308C65.8578 11.6364 65.8569 11.642 65.8559 11.6477C65.855 11.6533 65.8541 11.6589 65.8531 11.6645C65.8506 11.6795 65.85 11.6832 65.8475 11.6983C65.8374 11.7585 65.8462 11.706 65.8361 11.7664C65.8259 11.8276 65.8349 11.7738 65.8247 11.8352C65.8237 11.8409 65.8228 11.8467 65.8218 11.8525C65.8208 11.8582 65.8199 11.864 65.8189 11.8698C65.8179 11.8756 65.817 11.8814 65.816 11.8872C65.815 11.893 65.8141 11.8988 65.8131 11.9046C65.7976 11.9976 65.817 11.8815 65.8014 11.9747C65.7962 12.006 65.7949 12.0138 65.7896 12.0454C65.7887 12.0513 65.7877 12.0573 65.7867 12.0632C65.7857 12.0691 65.7847 12.0751 65.7837 12.081C65.7827 12.087 65.7817 12.0929 65.7807 12.0989C65.7797 12.1049 65.7787 12.1108 65.7777 12.1168C65.7618 12.2124 65.7817 12.093 65.7657 12.1888C65.7647 12.1949 65.7637 12.2009 65.7627 12.207C65.7617 12.213 65.7607 12.2191 65.7597 12.2251C65.7587 12.2312 65.7577 12.2372 65.7567 12.2433C65.7556 12.2494 65.7546 12.2555 65.7536 12.2616C65.7526 12.2676 65.7516 12.2737 65.7506 12.2798C65.7495 12.2859 65.7485 12.292 65.7475 12.2982C65.7465 12.3043 65.7455 12.3104 65.7445 12.3165C65.7434 12.3226 65.7424 12.3288 65.7414 12.3349C65.725 12.4332 65.7455 12.3105 65.729 12.4089C65.728 12.4151 65.727 12.4213 65.726 12.4275C65.7249 12.4337 65.7239 12.44 65.7228 12.4462C65.7218 12.4524 65.7208 12.4586 65.7197 12.4649C65.7187 12.4711 65.7177 12.4773 65.7166 12.4836C65.7156 12.4898 65.7145 12.4961 65.7135 12.5024C65.7124 12.5086 65.7114 12.5149 65.7103 12.5212C65.7048 12.5547 65.7097 12.5253 65.7041 12.5589C65.6872 12.6598 65.7082 12.5338 65.6914 12.6349C65.6857 12.6689 65.6907 12.6391 65.685 12.6732C65.684 12.6795 65.6829 12.6859 65.6818 12.6923C65.6808 12.6987 65.6797 12.7051 65.6786 12.7116C65.6775 12.718 65.6765 12.7244 65.6754 12.7308C65.6743 12.7372 65.6733 12.7437 65.6722 12.7501C65.6665 12.7846 65.6715 12.7544 65.6657 12.7888C65.6647 12.7953 65.6636 12.8018 65.6625 12.8083C65.6614 12.8148 65.6603 12.8212 65.6592 12.8277C65.6582 12.8342 65.6571 12.8407 65.656 12.8473C65.6549 12.8538 65.6538 12.8603 65.6527 12.8668C65.6517 12.8733 65.6506 12.8799 65.6495 12.8864C65.6484 12.8929 65.6473 12.8995 65.6462 12.906C65.6451 12.9126 65.644 12.9191 65.6429 12.9257C65.6418 12.9323 65.6407 12.9388 65.6396 12.9454C65.6385 12.952 65.6374 12.9586 65.6363 12.9652C65.6352 12.9718 65.6341 12.9784 65.633 12.985C65.6319 12.9916 65.6308 12.9982 65.6297 13.0048C65.6286 13.0114 65.6275 13.018 65.6264 13.0247C65.6253 13.0313 65.6242 13.038 65.6231 13.0446C65.622 13.0512 65.6209 13.0579 65.6198 13.0646C65.6187 13.0712 65.6176 13.0779 65.6164 13.0846C65.6153 13.0912 65.6142 13.0979 65.6131 13.1046C65.612 13.1113 65.6109 13.118 65.6098 13.1247C65.6086 13.1314 65.6075 13.1381 65.6064 13.1448C65.6053 13.1515 65.6042 13.1582 65.603 13.165C65.6019 13.1717 65.6008 13.1784 65.5997 13.1852C65.5986 13.1919 65.5974 13.1987 65.5963 13.2054C65.5952 13.2122 65.594 13.2189 65.5929 13.2257C65.5918 13.2325 65.5907 13.2393 65.5895 13.246C65.5884 13.2528 65.5873 13.2596 65.5861 13.2664C65.585 13.2732 65.5839 13.28 65.5827 13.2868C65.5816 13.2936 65.5805 13.3005 65.5793 13.3073C65.5733 13.3437 65.5786 13.3119 65.5725 13.3483C65.5714 13.3552 65.5702 13.362 65.5691 13.3689C65.5679 13.3757 65.5668 13.3826 65.5656 13.3895C65.5645 13.3964 65.5633 13.4033 65.5622 13.4102C65.561 13.417 65.5599 13.4239 65.5587 13.4309C65.5526 13.4677 65.558 13.4355 65.5518 13.4724C65.5507 13.4793 65.5495 13.4862 65.5483 13.4932C65.5472 13.5001 65.546 13.5071 65.5449 13.5141C65.5437 13.521 65.5425 13.528 65.5414 13.535C65.5402 13.5419 65.5391 13.5489 65.5379 13.5559C65.5317 13.5932 65.5371 13.5606 65.5309 13.5979C65.5184 13.673 65.5153 13.6916 65.5026 13.7676C65.5014 13.7747 65.5002 13.7819 65.499 13.789C65.4978 13.7961 65.4967 13.8033 65.4955 13.8104C65.4943 13.8176 65.4931 13.8247 65.4919 13.8319C65.4907 13.8391 65.4895 13.8462 65.4883 13.8534C65.4871 13.8606 65.4859 13.8678 65.4847 13.875C65.4835 13.8822 65.4823 13.8894 65.4811 13.8966C65.4799 13.9038 65.4787 13.911 65.4775 13.9182C65.4763 13.9255 65.4751 13.9327 65.4739 13.9399C65.4727 13.9471 65.4715 13.9544 65.4703 13.9616C65.4691 13.9689 65.4678 13.9761 65.4666 13.9834C65.4654 13.9907 65.4642 13.9979 65.463 14.0052C65.4618 14.0125 65.4606 14.0198 65.4594 14.0271C65.4582 14.0343 65.4569 14.0416 65.4557 14.0489C65.4545 14.0562 65.4533 14.0636 65.4521 14.0709C65.4508 14.0782 65.4496 14.0855 65.4484 14.0928C65.4472 14.1002 65.446 14.1075 65.4447 14.1149C65.4316 14.1935 65.4284 14.2129 65.4151 14.2924C65.4139 14.2999 65.4127 14.3073 65.4114 14.3148C65.4102 14.3223 65.4089 14.3297 65.4077 14.3372C65.4077 14.3372 65.4002 14.3821 65.4002 14.3822C65.3989 14.3897 65.3977 14.3972 65.3964 14.4047C65.3952 14.4122 65.3939 14.4198 65.3927 14.4273C65.3914 14.4348 65.3901 14.4424 65.3889 14.4499C65.3876 14.4575 65.3864 14.465 65.3851 14.4726C65.3851 14.4726 65.3548 14.6545 65.3546 14.6554C65.341 14.7376 65.3376 14.7578 65.3237 14.8408C65.3168 14.8823 65.3151 14.8928 65.3081 14.9346C65.3068 14.9424 65.3055 14.9502 65.3042 14.9581C65.3029 14.9659 65.3016 14.9738 65.3003 14.9817C65.299 14.9895 65.2976 14.9974 65.2963 15.0053C65.295 15.0131 65.2937 15.021 65.2924 15.0289C65.2924 15.0289 65.2607 15.2187 65.2606 15.2196L67.2334 15.5484C67.2347 15.5404 67.2361 15.5324 67.2374 15.5244C67.2387 15.5164 67.2401 15.5085 67.2414 15.5005C67.2449 15.4792 67.2458 15.4739 67.2493 15.4527C67.2564 15.4104 67.2582 15.3998 67.2652 15.3577C67.2792 15.2737 67.2827 15.2528 67.2965 15.1696C67.3034 15.1282 67.3052 15.1178 67.312 15.0766C67.3129 15.0714 67.3189 15.0354 67.3197 15.0303C67.3266 14.9893 67.3206 15.0252 67.3274 14.9842C67.3287 14.9765 67.33 14.9689 67.3313 14.9612C67.3325 14.9536 67.3338 14.9459 67.3351 14.9383C67.3359 14.9331 67.3419 14.8975 67.3427 14.8925C67.3495 14.8519 67.3512 14.8418 67.3579 14.8014C67.3613 14.7809 67.3847 14.6408 67.3879 14.6212C67.3945 14.5815 67.3962 14.5716 67.4028 14.5321C67.4036 14.5272 67.4093 14.4927 67.4102 14.4878C67.4167 14.4485 67.411 14.4829 67.4175 14.4436C67.4187 14.4363 67.42 14.429 67.4212 14.4216C67.4224 14.4143 67.4236 14.407 67.4249 14.3997C67.4281 14.3802 67.4289 14.3753 67.4322 14.3559C67.437 14.3267 67.4419 14.2976 67.4467 14.2687C67.4499 14.2491 67.4723 14.1151 67.4754 14.0964C67.4819 14.0572 67.5256 13.7953 67.5315 13.7596C67.5346 13.7409 67.556 13.613 67.5589 13.5952C67.5604 13.5861 67.571 13.5229 67.5725 13.514C67.5732 13.5095 67.5785 13.4781 67.5792 13.4736C67.5822 13.4557 67.5829 13.4512 67.5859 13.4334C67.6328 13.1522 67.6449 13.0796 67.6894 12.8124C67.7335 12.548 67.7442 12.4838 67.7859 12.2334C67.8273 11.9852 67.8364 11.9306 67.8754 11.6964C67.9129 11.4716 67.9228 11.4122 67.9579 11.2014C67.9601 11.1879 67.9753 11.0968 67.9774 11.0842C67.9817 11.0585 67.9828 11.0521 67.987 11.0266C67.9876 11.0234 67.9913 11.0012 67.9918 10.998C67.9926 10.9933 67.9934 10.9886 67.9942 10.9838C67.9949 10.9791 67.9957 10.9744 67.9965 10.9696C67.9973 10.9649 67.9981 10.9602 67.9989 10.9555C67.9997 10.9508 68.0004 10.9461 68.0012 10.9414C68.0033 10.9289 68.0038 10.9258 68.0059 10.9134C68.007 10.9071 68.0142 10.8638 68.0152 10.8577C68.0173 10.8451 68.0314 10.7601 68.0334 10.7484C68.0493 10.653 68.0532 10.6296 68.0685 10.5376C68.0705 10.5259 68.0836 10.447 68.0854 10.4362C68.0891 10.414 68.09 10.4085 68.0937 10.3865C68.0946 10.381 68.0969 10.3673 68.0978 10.3619C68.0985 10.3578 68.0992 10.3537 68.0999 10.3496C68.1005 10.3455 68.1012 10.3415 68.1019 10.3374C68.1026 10.3333 68.1032 10.3293 68.1039 10.3252C68.1046 10.3212 68.1053 10.3171 68.1059 10.3131C68.1064 10.3104 68.1095 10.2916 68.11 10.289C68.1109 10.2836 68.1171 10.2464 68.1179 10.2412C68.1249 10.1992 68.1267 10.1888 68.1335 10.1476C68.1371 10.1259 68.1604 9.9866 68.1634 9.9684C68.1767 9.88861 68.2069 9.70718 68.2179 9.6414C68.2209 9.62319 68.2401 9.50835 68.2425 9.49365C68.2478 9.46212 68.2491 9.45435 68.2542 9.42371C68.2567 9.4085 68.2573 9.40472 68.2598 9.38972C68.2602 9.38784 68.2623 9.37481 68.2626 9.37298C68.2631 9.3702 68.2636 9.36743 68.264 9.36467C68.2645 9.3619 68.2649 9.35915 68.2654 9.3564C68.2659 9.35365 68.2663 9.3509 68.2668 9.34817C68.2672 9.34543 68.2677 9.3427 68.2681 9.33998C68.2687 9.33634 68.2702 9.32731 68.2708 9.32372C68.272 9.3165 68.275 9.29871 68.2762 9.29171C68.2774 9.28437 68.2854 9.23611 68.2865 9.22965C68.2911 9.20204 68.3019 9.1375 68.3059 9.1134C68.3145 9.06149 68.3331 8.9503 68.3394 8.9124C68.3594 8.7924 68.3747 8.7004 68.3854 8.6364L66.4126 8.3076ZM65.2609 15.2181C64.4929 19.7831 64.0234 22.5787 63.8526 23.6036L65.8254 23.9324C65.9959 22.9093 66.4651 20.1156 67.2331 15.5499L65.2609 15.2181ZM63.8516 23.6097L62.5076 31.9937L64.4824 32.3103L65.8264 23.9263L63.8516 23.6097ZM62.506 32.004C61.5668 38.2794 60.8192 43.5338 60.2635 47.7658L62.2465 48.0262C62.8001 43.8102 63.5458 38.5686 64.484 32.3L62.506 32.004ZM61.3026 48.8949C62.1755 48.8533 63.3734 48.832 64.903 48.832V46.832C63.3606 46.832 62.1265 46.8534 61.2074 46.8971L61.3026 48.8949ZM64.903 48.832C65.9952 48.832 66.876 48.9046 67.5601 49.0376C68.2551 49.1728 68.6797 49.3576 68.9178 49.5331L70.1042 47.9229C69.5316 47.5011 68.7829 47.2379 67.9419 47.0744C67.09 46.9087 66.0721 46.832 64.903 46.832V48.832ZM68.9178 49.5331C69.4231 49.9054 69.727 50.472 69.727 51.416H71.727C71.727 49.9706 71.2202 48.7453 70.1042 47.9229L68.9178 49.5331ZM69.727 51.416C69.727 52.2129 69.4226 52.8809 68.7322 53.4727L70.0338 54.9913C71.1354 54.0471 71.727 52.8378 71.727 51.416H69.727ZM68.714 53.4887C68.1035 54.0382 67.1598 54.384 65.735 54.384V56.384C67.4675 56.384 68.9559 55.9618 70.052 54.9753L68.714 53.4887ZM65.735 54.384C64.6881 54.384 63.0184 54.342 60.716 54.2567L60.642 56.2553C62.9476 56.3407 64.6486 56.384 65.735 56.384V54.384ZM60.719 54.2568C58.5896 54.1716 57.1612 54.128 56.455 54.128V56.128C57.1141 56.128 58.5017 56.1697 60.639 56.2552L60.719 54.2568ZM56.455 54.128C53.7099 54.128 50.7166 54.3676 47.4779 54.8426L47.7681 56.8214C50.9294 56.3578 53.8241 56.128 56.455 56.128V54.128ZM47.4732 54.8433C46.0657 55.0565 45.1294 55.152 44.615 55.152V57.152C45.2952 57.152 46.3643 57.0341 47.7728 56.8207L47.4732 54.8433ZM44.615 55.152C43.8687 55.152 43.3091 54.953 42.8717 54.6031L41.6223 56.1649C42.4649 56.839 43.484 57.152 44.615 57.152V55.152ZM42.8717 54.6031C42.5165 54.319 42.287 53.8882 42.287 53.144H40.287C40.287 54.3625 40.6975 55.425 41.6223 56.1649L42.8717 54.6031ZM42.287 53.144C42.287 51.9724 42.775 51.0893 43.865 50.408L42.805 48.712C41.1644 49.7374 40.287 51.2436 40.287 53.144H42.287ZM43.865 50.408C45.0148 49.6894 46.7294 49.2569 49.1122 49.2159L49.0778 47.2161C46.5113 47.2604 44.3858 47.724 42.805 48.712L43.865 50.408ZM49.1163 49.2158L52.1243 49.1518L52.0817 47.1522L49.0737 47.2162L49.1163 49.2158ZM53.0938 48.2871L53.2858 46.8791L51.3042 46.6089L51.1122 48.0169L53.0938 48.2871ZM53.2839 46.8923C54.3079 40.0657 55.0535 35.2515 55.5214 32.4444L53.5486 32.1156C53.0778 34.9405 52.3301 39.769 51.3061 46.5957L53.2839 46.8923ZM55.5212 32.4456L56.9292 24.0616L54.9568 23.7304L53.5488 32.1144L55.5212 32.4456ZM56.9285 24.0659C57.7843 19.1023 58.5543 13.9899 59.2386 8.72899L57.2554 8.471C56.5744 13.706 55.8084 18.7911 54.9575 23.7261L56.9285 24.0659ZM58.2351 7.60007L52.8591 7.66407L52.8829 9.66393L58.2589 9.59993L58.2351 7.60007ZM52.871 7.664C51.3675 7.664 50.6028 7.42039 50.2888 7.17368L49.0532 8.74632C49.9339 9.43828 51.3025 9.664 52.871 9.664V7.664ZM50.3493 7.2252C50.038 6.93786 49.839 6.52168 49.839 5.848H47.839C47.839 6.96632 48.1947 7.95814 48.9927 8.6948L50.3493 7.2252ZM49.839 5.848C49.839 4.67216 50.2436 3.87264 51.0044 3.30596C51.8215 2.69727 53.1596 2.27686 55.162 2.1747L55.06 0.177298C52.8811 0.288468 51.0831 0.753393 49.8096 1.70204C48.4797 2.69269 47.839 4.12251 47.839 5.848H49.839ZM55.1544 2.17505C57.0979 2.09055 59.4719 2.048 62.279 2.048V0.0479965C59.4541 0.0479965 57.0494 0.0907744 55.0676 0.176943L55.1544 2.17505ZM62.2735 2.04798L73.9855 2.11198L73.9965 0.112011L62.2845 0.0480114L62.2735 2.04798ZM127.375 41.496L126.511 41.9999L126.526 42.0258L126.542 42.0507L127.375 41.496ZM126.671 47.576L127.434 48.2214L127.441 48.2129L126.671 47.576ZM120.463 53.336L121.005 54.176L121.011 54.1721L121.017 54.168L120.463 53.336ZM104.975 51.928L104.212 52.5753L104.219 52.5835L104.975 51.928ZM100.303 42.008L99.3381 42.2724L99.3382 42.2727L100.303 42.008ZM98.1265 34.072L99.0909 33.8076L98.575 31.9262L97.3488 33.4434L98.1265 34.072ZM83.0225 52.76L82.2448 52.1314L82.2416 52.1353L83.0225 52.76ZM80.3985 54.872L80.7147 55.8207L80.7348 55.814L80.7545 55.8065L80.3985 54.872ZM74.2545 54.68L73.733 55.5333L73.7604 55.55L73.7888 55.5649L74.2545 54.68ZM74.9585 49.112L75.6995 49.7835L75.7048 49.7777L75.7099 49.7718L74.9585 49.112ZM95.6945 25.496L96.4459 26.1558L96.8011 25.7513L96.6591 25.2322L95.6945 25.496ZM93.6465 18.008L94.6111 17.7442L94.6093 17.7379L93.6465 18.008ZM90.3825 10.648L91.145 10.001L90.3825 10.648ZM78.3505 13.464L79.0853 14.1423L79.0857 14.1419L78.3505 13.464ZM74.9585 13.592L74.1903 14.2322L74.2193 14.267L74.2514 14.2991L74.9585 13.592ZM76.1745 7.512L75.4141 6.86251L75.4093 6.86821L75.4045 6.87398L76.1745 7.512ZM81.8705 2.584L81.3534 1.72808V1.72808L81.8705 2.584ZM96.6545 3.608L95.9552 4.32288L95.9633 4.33064L96.6545 3.608ZM101.326 12.76L100.362 13.0231L100.365 13.0347L101.326 12.76ZM102.606 17.24L101.645 17.5147L102.169 19.348L103.379 17.8748L102.606 17.24ZM113.807 3.608L113.038 2.9678L113.034 2.97318L113.807 3.608ZM116.431 1.432L116.86 2.33486L116.86 2.33486L116.431 1.432ZM122.383 1.432L121.828 2.26405L121.84 2.2722L121.853 2.28L122.383 1.432ZM121.678 6.744L120.924 6.08722L120.923 6.08907L121.678 6.744ZM105.038 25.944L104.283 25.2891L103.931 25.6953L104.075 26.2131L105.038 25.944ZM108.687 39L107.723 39.2691L107.724 39.2723L108.687 39ZM110.415 44.184L109.495 44.5779L110.415 44.184ZM112.271 46.872L111.635 47.6439L111.659 47.6641L111.685 47.6827L112.271 46.872ZM119.374 46.296L118.831 45.4563L118.82 45.464L119.374 46.296ZM124.367 41.624L125.124 42.2772L125.126 42.2748L124.367 41.624ZM126.094 41.728C126.265 41.728 126.376 41.7694 126.511 41.9999L128.238 40.9921C127.775 40.1986 127.034 39.728 126.094 39.728V41.728ZM126.542 42.0507C126.735 42.3394 126.887 42.824 126.887 43.608H128.887C128.887 42.6 128.697 41.6766 128.207 40.9413L126.542 42.0507ZM126.887 43.608C126.887 45.1118 126.522 46.1858 125.9 46.9391L127.441 48.2129C128.44 47.0035 128.887 45.4322 128.887 43.608H126.887ZM125.907 46.9306C123.859 49.3548 121.857 51.2042 119.908 52.5039L121.017 54.168C123.164 52.7372 125.301 50.7465 127.434 48.2214L125.907 46.9306ZM119.92 52.496C118.039 53.7107 115.946 54.32 113.615 54.32V56.32C116.318 56.32 118.79 55.6067 121.005 54.176L119.92 52.496ZM113.615 54.32C110.023 54.32 107.454 53.2589 105.73 51.2725L104.219 52.5835C106.421 55.1197 109.611 56.32 113.615 56.32V54.32ZM105.737 51.2808C103.948 49.1734 102.441 46.0211 101.267 41.7433L99.3382 42.2727C100.553 46.6989 102.161 50.1599 104.212 52.5752L105.737 51.2808ZM101.267 41.7436L99.0909 33.8076L97.1621 34.3364L99.3381 42.2724L101.267 41.7436ZM97.3488 33.4434L82.2448 52.1314L83.8002 53.3886L98.9042 34.7006L97.3488 33.4434ZM82.2416 52.1353C81.455 53.1186 80.7156 53.6811 80.0425 53.9375L80.7545 55.8065C81.8734 55.3802 82.8833 54.5347 83.8034 53.3847L82.2416 52.1353ZM80.0823 53.9233C79.3111 54.1804 78.3768 54.32 77.2625 54.32V56.32C78.5375 56.32 79.6939 56.161 80.7147 55.8207L80.0823 53.9233ZM77.2625 54.32C76.1824 54.32 75.3503 54.1267 74.7202 53.7951L73.7888 55.5649C74.78 56.0866 75.9533 56.32 77.2625 56.32V54.32ZM74.7759 53.8267C74.266 53.5151 74.1025 53.1787 74.1025 52.76H72.1025C72.1025 53.9626 72.707 54.9063 73.733 55.5333L74.7759 53.8267ZM74.1025 52.76C74.1025 52.0684 74.5176 51.0877 75.6995 49.7835L74.2175 48.4405C72.9248 49.867 72.1025 51.3183 72.1025 52.76H74.1025ZM75.7099 49.7718L96.4459 26.1558L94.9431 24.8362L74.2071 48.4522L75.7099 49.7718ZM96.6591 25.2322L94.6111 17.7442L92.6819 18.2718L94.7299 25.7598L96.6591 25.2322ZM94.6093 17.7379C93.6196 14.2093 92.4853 11.5807 91.145 10.001L89.62 11.295C90.669 12.5313 91.7107 14.8094 92.6837 18.2781L94.6093 17.7379ZM91.145 10.001C89.8026 8.41885 88.1757 7.536 86.2865 7.536V9.536C87.4693 9.536 88.5731 10.0611 89.62 11.295L91.145 10.001ZM86.2865 7.536C83.5726 7.536 80.6707 9.47253 77.6153 12.7861L79.0857 14.1419C82.089 10.8848 84.4777 9.536 86.2865 9.536V7.536ZM77.6157 12.7857C77.256 13.1754 76.9331 13.296 76.6225 13.296V15.296C77.5919 15.296 78.421 14.8619 79.0853 14.1423L77.6157 12.7857ZM76.6225 13.296C76.2585 13.296 75.9552 13.1745 75.6656 12.8849L74.2514 14.2991C74.9005 14.9482 75.7065 15.296 76.6225 15.296V13.296ZM75.7267 12.9518C75.4723 12.6464 75.3185 12.2437 75.3185 11.672H73.3185C73.3185 12.6363 73.5914 13.5135 74.1903 14.2322L75.7267 12.9518ZM75.3185 11.672C75.3185 10.7186 75.7824 9.55253 76.9445 8.15001L75.4045 6.87398C74.0919 8.45814 73.3185 10.0654 73.3185 11.672H75.3185ZM76.9349 8.16148C78.6233 6.18477 80.4419 4.61542 82.3876 3.43991L81.3534 1.72808C79.2031 3.02724 77.2243 4.74323 75.4141 6.86251L76.9349 8.16148ZM82.3876 3.43991C84.2539 2.31238 86.5002 1.728 89.1665 1.728V-0.272003C86.2008 -0.272003 83.5831 0.380944 81.3534 1.72808L82.3876 3.43991ZM89.1665 1.728C91.964 1.728 94.1995 2.60531 95.9552 4.32283L97.3538 2.89316C95.1842 0.770687 92.4277 -0.272003 89.1665 -0.272003V1.728ZM95.9633 4.33064C97.7374 6.02767 99.2311 8.87753 100.362 13.0231L102.291 12.4969C101.118 8.19447 99.4969 4.94299 97.3457 2.88536L95.9633 4.33064ZM100.365 13.0347L101.645 17.5147L103.568 16.9653L102.288 12.4853L100.365 13.0347ZM103.379 17.8748L114.579 4.24281L113.034 2.97318L101.834 16.6052L103.379 17.8748ZM114.575 4.24818C115.366 3.29903 116.132 2.68197 116.86 2.33486L116.001 0.529138C114.938 1.03536 113.954 1.86897 113.038 2.96781L114.575 4.24818ZM116.86 2.33486C117.589 1.98788 118.522 1.792 119.695 1.792V-0.208004C118.307 -0.208004 117.064 0.0227807 116.001 0.52914L116.86 2.33486ZM119.695 1.792C120.741 1.792 121.415 1.9888 121.828 2.26405L122.937 0.599949C122.07 0.0218645 120.952 -0.208004 119.695 -0.208004V1.792ZM121.853 2.28C122.26 2.53459 122.407 2.82044 122.407 3.224H124.407C124.407 2.09155 123.87 1.18274 122.913 0.584001L121.853 2.28ZM122.407 3.224C122.407 3.88542 122.021 4.8277 120.924 6.08722L122.433 7.40078C123.64 6.01496 124.407 4.61057 124.407 3.224H122.407ZM120.923 6.08907L104.283 25.2891L105.794 26.5989L122.434 7.39893L120.923 6.08907ZM104.075 26.2131L107.723 39.2691L109.65 38.7309L106.002 25.6749L104.075 26.2131ZM107.724 39.2723C108.368 41.5477 108.958 43.3241 109.495 44.5779L111.334 43.7901C110.847 42.6545 110.285 40.9749 109.649 38.7277L107.724 39.2723ZM109.495 44.5779C110.047 45.8662 110.748 46.9137 111.635 47.6439L112.906 46.1001C112.342 45.6356 111.806 44.8911 111.334 43.7901L109.495 44.5779ZM111.685 47.6827C112.669 48.3933 113.895 48.704 115.279 48.704V46.704C114.187 46.704 113.408 46.4601 112.856 46.0613L111.685 47.6827ZM115.279 48.704C116.847 48.704 118.403 48.1458 119.929 47.128L118.82 45.464C117.53 46.3235 116.355 46.704 115.279 46.704V48.704ZM119.918 47.1356C121.484 46.1224 123.22 44.4843 125.124 42.2772L123.609 40.9708C121.759 43.1157 120.167 44.5922 118.831 45.4564L119.918 47.1356ZM125.126 42.2748C125.495 41.8437 125.812 41.728 126.094 41.728V39.728C125.097 39.728 124.262 40.2096 123.607 40.9732L125.126 42.2748ZM167.945 43.352L167.574 42.4235L167.564 42.4274L167.554 42.4314L167.945 43.352ZM171.081 43.736L170.249 44.2907L171.081 43.736ZM170.633 48.984L169.819 48.4028L169.81 48.4159L169.801 48.4293L170.633 48.984ZM167.497 51.416L167.926 52.3195L167.934 52.3155L167.497 51.416ZM157.705 54.296L157.873 55.2819L157.883 55.28L157.705 54.296ZM132.361 53.528L132.038 54.4745L132.048 54.4778L132.361 53.528ZM124.233 48.472L123.46 49.1061L123.467 49.1152L124.233 48.472ZM125.129 31.896L124.392 31.2197L124.392 31.2203L125.129 31.896ZM135.625 26.264L135.868 27.2341L139.474 26.3324L135.902 25.3031L135.625 26.264ZM129.801 22.424L128.99 23.0088L128.994 23.0149L128.999 23.021L129.801 22.424ZM130.697 8.152L129.924 7.51726L129.923 7.51876L130.697 8.152ZM138.569 2.648L138.932 3.57978V3.57978L138.569 2.648ZM161.289 4.184L160.632 4.93811L160.639 4.94412L161.289 4.184ZM163.849 19.16L162.989 18.6489L162.985 18.6561L163.849 19.16ZM157.129 20.696L156.498 21.4721L156.513 21.4844L156.529 21.496L157.129 20.696ZM156.425 15.896L157.395 16.1385L157.407 16.0926L157.414 16.0458L156.425 15.896ZM155.017 9.304L154.369 10.0652L154.377 10.0723L154.385 10.0792L155.017 9.304ZM139.721 21.336L139.089 22.1109L139.1 22.1199L139.111 22.1286L139.721 21.336ZM147.785 23.448L147.83 22.449L147.819 22.4486L147.785 23.448ZM149.769 24.088L149.062 24.7951L149.769 24.088ZM146.505 30.296L146.488 29.2961L146.481 29.2963L146.505 30.296ZM137.673 31.768L137.316 30.8338L137.311 30.836L137.673 31.768ZM132.617 35.224L131.82 34.6201L131.817 34.624L132.617 35.224ZM134.793 45.656L134.31 46.5317L134.322 46.5379L134.793 45.656ZM157.769 46.424L157.971 47.4034L157.979 47.4016L157.769 46.424ZM168.316 44.2805C168.902 44.0462 169.3 43.968 169.545 43.968V41.968C168.937 41.968 168.268 42.1458 167.574 42.4235L168.316 44.2805ZM169.545 43.968C169.936 43.968 170.116 44.0909 170.249 44.2907L171.913 43.1813C171.364 42.3571 170.519 41.968 169.545 41.968V43.968ZM170.249 44.2907C170.451 44.5937 170.593 45.0451 170.593 45.72H172.593C172.593 44.7736 172.394 43.9023 171.913 43.1813L170.249 44.2907ZM170.593 45.72C170.593 46.8265 170.319 47.7028 169.819 48.4028L171.447 49.5652C172.227 48.4732 172.593 47.1735 172.593 45.72H170.593ZM169.801 48.4293C169.342 49.1179 168.473 49.8303 167.06 50.5165L167.934 52.3155C169.508 51.5511 170.729 50.6421 171.465 49.5387L169.801 48.4293ZM167.068 50.5126C164.658 51.6564 161.487 52.5958 157.527 53.312L157.883 55.28C161.944 54.5455 165.301 53.5649 167.926 52.3194L167.068 50.5126ZM157.537 53.3102C153.579 53.9839 149.689 54.32 145.865 54.32V56.32C149.807 56.32 153.809 55.9735 157.873 55.2818L157.537 53.3102ZM145.865 54.32C140.555 54.32 136.168 53.7291 132.674 52.5782L132.048 54.4778C135.808 55.7162 140.423 56.32 145.865 56.32V54.32ZM132.684 52.5816C129.168 51.3819 126.637 49.7797 124.999 47.8288L123.467 49.1152C125.413 51.431 128.301 53.1995 132.038 54.4744L132.684 52.5816ZM125.006 47.8379C123.399 45.8783 122.609 43.6902 122.609 41.24H120.609C120.609 44.1658 121.568 46.7991 123.46 49.1061L125.006 47.8379ZM122.609 41.24C122.609 37.8053 123.699 34.9362 125.866 32.5717L124.392 31.2203C121.866 33.9758 120.609 37.336 120.609 41.24H122.609ZM125.866 32.5723C128.084 30.1557 131.386 28.3546 135.868 27.2341L135.382 25.2939C130.648 26.4774 126.952 28.431 124.392 31.2197L125.866 32.5723ZM135.902 25.3031C133.563 24.6291 131.819 23.4612 130.603 21.827L128.999 23.021C130.513 25.0561 132.653 26.4482 135.348 27.2249L135.902 25.3031ZM130.612 21.8392C129.412 20.1748 128.817 18.3314 128.817 16.28H126.817C126.817 18.7513 127.544 21.0039 128.99 23.0088L130.612 21.8392ZM128.817 16.28C128.817 13.4355 129.699 10.9507 131.471 8.78523L129.923 7.51876C127.855 10.0466 126.817 12.9805 126.817 16.28H128.817ZM131.47 8.78674C133.309 6.54756 135.784 4.80638 138.932 3.57978L138.206 1.71622C134.784 3.04961 132.01 4.97777 129.924 7.51726L131.47 8.78674ZM138.932 3.57978C142.089 2.34969 145.57 1.728 149.385 1.728V-0.272003C145.35 -0.272003 141.619 0.386304 138.206 1.71622L138.932 3.57978ZM149.385 1.728C154.553 1.728 158.242 2.85623 160.632 4.93808L161.946 3.42992C159.045 0.903768 154.799 -0.272003 149.385 -0.272003V1.728ZM160.639 4.94412C163.052 7.0065 164.257 9.66763 164.257 13.016H166.257C166.257 9.11103 164.817 5.88417 161.939 3.42388L160.639 4.94412ZM164.257 13.016C164.257 15.4174 163.808 17.2719 162.989 18.6489L164.709 19.6711C165.767 17.8908 166.257 15.6492 166.257 13.016H164.257ZM162.985 18.6561C162.259 19.9007 161.278 20.464 159.945 20.464V22.464C162.025 22.464 163.647 21.4913 164.713 19.6639L162.985 18.6561ZM159.945 20.464C158.882 20.464 158.181 20.2353 157.729 19.896L156.529 21.496C157.442 22.1807 158.618 22.464 159.945 22.464V20.464ZM157.76 19.9199C157.361 19.5956 157.105 19.1003 157.105 18.264H155.105C155.105 19.5611 155.532 20.687 156.498 21.4721L157.76 19.9199ZM157.105 18.264C157.105 17.6356 157.198 16.9287 157.395 16.1385L155.455 15.6535C155.226 16.57 155.105 17.4418 155.105 18.264H157.105ZM157.414 16.0458C157.626 14.6461 157.745 13.6144 157.745 13.016H155.745C155.745 13.4416 155.651 14.3299 155.436 15.7462L157.414 16.0458ZM157.745 13.016C157.745 11.1911 157.043 9.66461 155.649 8.52876L154.385 10.0792C155.295 10.8207 155.745 11.7689 155.745 13.016H157.745ZM155.665 8.54275C154.237 7.32611 152.017 6.832 149.257 6.832V8.832C151.873 8.832 153.493 9.31922 154.369 10.0652L155.665 8.54275ZM149.257 6.832C145.497 6.832 142.372 7.62777 139.976 9.31903L141.13 10.953C143.086 9.57222 145.764 8.832 149.257 8.832V6.832ZM139.976 9.31903C137.542 11.0372 136.289 13.4075 136.289 16.344H138.289C138.289 14.0752 139.212 12.3068 141.13 10.953L139.976 9.31903ZM136.289 16.344C136.289 18.6645 137.246 20.6078 139.089 22.1109L140.353 20.5611C138.953 19.4189 138.289 18.0342 138.289 16.344H136.289ZM139.111 22.1286C141.026 23.6012 143.971 24.3171 147.751 24.4474L147.819 22.4486C144.175 22.3229 141.744 21.6308 140.331 20.5434L139.111 22.1286ZM147.74 24.447C148.596 24.4859 148.945 24.678 149.062 24.7951L150.476 23.3809C149.825 22.73 148.851 22.4954 147.83 22.449L147.74 24.447ZM149.062 24.7951C149.168 24.901 149.345 25.2135 149.345 26.008H151.345C151.345 25.0105 151.138 24.043 150.476 23.3809L149.062 24.7951ZM149.345 26.008C149.345 27.2827 149.054 28.0632 148.64 28.5249C148.242 28.9692 147.587 29.2778 146.488 29.2961L146.522 31.2959C147.983 31.2715 149.248 30.8442 150.13 29.8591C150.996 28.8915 151.345 27.5493 151.345 26.008H149.345ZM146.481 29.2963C142.869 29.3833 139.803 29.8843 137.316 30.8338L138.03 32.7022C140.236 31.8597 143.059 31.3793 146.529 31.2957L146.481 29.2963ZM137.311 30.836C134.9 31.7735 133.034 33.017 131.82 34.6201L133.414 35.8279C134.333 34.615 135.838 33.5545 138.035 32.7L137.311 30.836ZM131.817 34.624C130.674 36.1475 130.081 37.8271 130.081 39.64H132.081C132.081 38.2956 132.512 37.0311 133.417 35.824L131.817 34.624ZM130.081 39.64C130.081 41.1248 130.43 42.4738 131.158 43.6531C131.884 44.829 132.952 45.7823 134.31 46.5316L135.276 44.7804C134.159 44.1644 133.372 43.4323 132.86 42.6029C132.35 41.7768 132.081 40.8006 132.081 39.64H130.081ZM134.322 46.5379C137.021 47.981 141.153 48.64 146.569 48.64V46.64C141.233 46.64 137.514 45.9764 135.264 44.7741L134.322 46.5379ZM146.569 48.64C150.186 48.64 153.988 48.226 157.971 47.4033L157.567 45.4447C153.699 46.2434 150.034 46.64 146.569 46.64V48.64ZM157.979 47.4016C161.99 46.5391 165.446 45.4984 168.336 44.2726L167.554 42.4314C164.812 43.5949 161.484 44.6023 157.559 45.4464L157.979 47.4016ZM227.564 41.496L226.7 41.9999L226.715 42.0258L226.732 42.0507L227.564 41.496ZM226.86 47.576L227.63 48.2136L227.631 48.2129L226.86 47.576ZM220.652 53.336L221.187 54.1811L221.193 54.1772L221.199 54.1733L220.652 53.336ZM206.124 53.08L205.51 53.8694L205.518 53.8758L206.124 53.08ZM200.62 45.4L201.521 44.9655L201.52 44.9634L200.62 45.4ZM197.292 39L196.425 39.499L196.432 39.5105L197.292 39ZM194.86 35.992L194.246 36.7813L194.256 36.7893L194.267 36.7971L194.86 35.992ZM191.98 34.904L192.09 33.9101L191.171 33.8079L190.998 34.7169L191.98 34.904ZM190.508 43.352L189.522 43.1833L189.521 43.194L190.508 43.352ZM189.868 47.256L188.884 47.0771L188.883 47.0857L188.881 47.0942L189.868 47.256ZM187.308 53.272L188.038 53.9559L188.043 53.9503L188.048 53.9447L187.308 53.272ZM173.868 52.824L173.251 53.6109L173.259 53.6175L173.268 53.624L173.868 52.824ZM168.812 45.784L167.882 46.1509L167.884 46.1554L168.812 45.784ZM170.732 16.92L169.832 16.4846L169.829 16.4906L170.732 16.92ZM181.228 5.016L181.748 5.86989L181.751 5.86848L181.228 5.016ZM213.292 7.832L212.437 8.35141L212.441 8.35748L212.445 8.36349L213.292 7.832ZM213.612 22.232L212.718 21.7848L212.714 21.7916L213.612 22.232ZM208.556 28.248L209.168 29.039L208.556 28.248ZM200.3 32.152L200.046 31.1849L196.423 32.1381L200.039 33.1172L200.3 32.152ZM205.036 34.84L205.781 34.1725V34.1725L205.036 34.84ZM208.364 40.28L207.457 40.7011L207.458 40.7029L208.364 40.28ZM211.884 45.912L211.164 46.6061L211.17 46.6127L211.177 46.6191L211.884 45.912ZM219.884 46.36L220.471 47.1699L220.48 47.1634L220.488 47.1567L219.884 46.36ZM224.556 41.624L223.797 40.9732L223.793 40.9781L224.556 41.624ZM183.148 34.84L184.132 35.0172L184.344 33.84H183.148V34.84ZM180.14 33.816L179.34 34.416L179.352 34.4315L179.364 34.4466L180.14 33.816ZM180.332 29.08L179.673 28.3274L179.661 28.338L179.65 28.3489L180.332 29.08ZM184.236 28.184V29.184H185.086L185.223 28.3451L184.236 28.184ZM186.156 17.368L185.175 17.1719L185.175 17.1745L186.156 17.368ZM195.116 17.56L196.1 17.7379L196.102 17.7244L195.116 17.56ZM193.196 28.184L192.212 28.0062L191.987 29.2527L193.251 29.1825L193.196 28.184ZM199.468 26.52L199.013 25.6295L199.005 25.6338L199.468 26.52ZM204.012 22.424L203.177 21.874L203.172 21.8812L203.167 21.8885L204.012 22.424ZM202.988 10.136L203.63 9.36924V9.36924L202.988 10.136ZM183.916 10.968L184.465 11.8036L184.468 11.8018L183.916 10.968ZM176.62 20.184L177.538 20.5803L177.54 20.5768L176.62 20.184ZM174.828 42.072L173.866 42.344L174.828 42.072ZM176.876 46.488L176.105 47.1249L176.876 46.488ZM180.524 47.128L179.702 46.5588L179.686 46.5809L179.672 46.6039L180.524 47.128ZM181.42 44.44L180.436 44.2628L180.435 44.2701L181.42 44.44ZM226.284 41.728C226.454 41.728 226.566 41.7694 226.7 41.9999L228.428 40.9921C227.965 40.1986 227.223 39.728 226.284 39.728V41.728ZM226.732 42.0507C226.924 42.3394 227.076 42.824 227.076 43.608H229.076C229.076 42.6 228.886 41.6766 228.396 40.9413L226.732 42.0507ZM227.076 43.608C227.076 45.1118 226.711 46.1858 226.089 46.9391L227.631 48.2129C228.63 47.0035 229.076 45.4322 229.076 43.608H227.076ZM226.09 46.9384C224.088 49.3566 222.092 51.2015 220.105 52.4987L221.199 54.1733C223.394 52.7399 225.536 50.7447 227.63 48.2136L226.09 46.9384ZM220.117 52.4909C218.21 53.6974 215.927 54.32 213.228 54.32V56.32C216.246 56.32 218.912 55.6199 221.187 54.1811L220.117 52.4909ZM213.228 54.32C210.645 54.32 208.497 53.6287 206.73 52.2842L205.518 53.8758C207.677 55.518 210.265 56.32 213.228 56.32V54.32ZM206.738 52.2906C204.994 50.9345 203.242 48.5334 201.521 44.9655L199.719 45.8345C201.497 49.5199 203.414 52.2388 205.51 53.8694L206.738 52.2906ZM201.52 44.9634C200.109 42.057 198.985 39.8925 198.152 38.4895L196.432 39.5105C197.22 40.8382 198.315 42.9404 199.72 45.8366L201.52 44.9634ZM198.159 38.501C197.316 37.038 196.423 35.9014 195.453 35.1869L194.267 36.7971C194.919 37.2773 195.646 38.146 196.425 39.499L198.159 38.501ZM195.474 35.2026C194.534 34.4719 193.391 34.0546 192.09 33.9101L191.87 35.8979C192.873 36.0094 193.65 36.3174 194.246 36.7813L195.474 35.2026ZM190.998 34.7169C190.825 35.6245 190.332 38.4524 189.522 43.1833L191.494 43.5207C192.305 38.7796 192.794 35.9755 192.962 35.0911L190.998 34.7169ZM189.521 43.194C189.178 45.3321 188.967 46.6208 188.884 47.0771L190.852 47.4349C190.94 46.9526 191.155 45.6385 191.495 43.51L189.521 43.194ZM188.881 47.0942C188.474 49.5772 187.677 51.3794 186.568 52.5993L188.048 53.9447C189.499 52.3486 190.409 50.1401 190.855 47.4178L188.881 47.0942ZM186.578 52.5881C185.552 53.683 183.921 54.32 181.484 54.32V56.32C184.252 56.32 186.504 55.5917 188.038 53.9559L186.578 52.5881ZM181.484 54.32C178.835 54.32 176.508 53.554 174.468 52.024L173.268 53.624C175.665 55.4221 178.416 56.32 181.484 56.32V54.32ZM174.485 52.0371C172.469 50.4558 170.881 48.2628 169.74 45.4126L167.884 46.1554C169.133 49.2786 170.915 51.7789 173.251 53.6109L174.485 52.0371ZM169.742 45.4171C168.601 42.5235 168.02 39.2165 168.02 35.48H166.02C166.02 39.4235 166.634 42.9858 167.882 46.1509L169.742 45.4171ZM168.02 35.48C168.02 28.4252 169.238 22.3919 171.635 17.3494L169.829 16.4906C167.277 21.8587 166.02 28.1988 166.02 35.48H168.02ZM171.632 17.3554C174.075 12.3048 177.449 8.49037 181.748 5.86988L180.708 4.16211C176.047 7.00296 172.424 11.1245 169.832 16.4846L171.632 17.3554ZM181.751 5.86848C186.099 3.20197 191.12 1.856 196.844 1.856V-0.144001C190.792 -0.144001 185.402 1.28336 180.705 4.16351L181.751 5.86848ZM196.844 1.856C200.846 1.856 204.132 2.46135 206.741 3.62523L207.555 1.79877C204.617 0.487977 201.034 -0.144001 196.844 -0.144001V1.856ZM206.741 3.62523C209.365 4.79604 211.239 6.38033 212.437 8.35141L214.147 7.31258C212.699 4.93167 210.478 3.10262 207.555 1.79877L206.741 3.62523ZM212.445 8.36349C213.704 10.3701 214.34 12.637 214.34 15.192H216.34C216.34 12.2857 215.611 9.64594 214.139 7.30051L212.445 8.36349ZM214.34 15.192C214.34 17.4142 213.806 19.6086 212.718 21.7848L214.506 22.6792C215.722 20.2474 216.34 17.7485 216.34 15.192H214.34ZM212.714 21.7916C211.681 23.8983 210.101 25.7885 207.944 27.457L209.168 29.039C211.534 27.2088 213.325 25.0884 214.51 22.6724L212.714 21.7916ZM207.944 27.457C205.806 29.1114 203.181 30.3599 200.046 31.1849L200.554 33.1191C203.905 32.2374 206.784 30.8833 209.168 29.039L207.944 27.457ZM200.039 33.1172C201.951 33.6353 203.342 34.449 204.291 35.5075L205.781 34.1725C204.511 32.7564 202.745 31.7781 200.561 31.1868L200.039 33.1172ZM204.291 35.5075C205.308 36.6412 206.368 38.3556 207.457 40.7011L209.271 39.8589C208.141 37.4258 206.983 35.5135 205.781 34.1725L204.291 35.5075ZM207.458 40.7029C208.671 43.303 209.9 45.2953 211.164 46.6061L212.604 45.2179C211.564 44.1394 210.446 42.377 209.27 39.8571L207.458 40.7029ZM211.177 46.6191C212.539 47.9807 214.151 48.704 215.98 48.704V46.704C214.737 46.704 213.619 46.2326 212.591 45.2049L211.177 46.6191ZM215.98 48.704C217.581 48.704 219.084 48.1741 220.471 47.1699L219.297 45.5501C218.21 46.3379 217.11 46.704 215.98 46.704V48.704ZM220.488 47.1567C221.814 46.1508 223.428 44.5051 225.319 42.2699L223.793 40.9781C221.929 43.1802 220.428 44.6919 219.28 45.5633L220.488 47.1567ZM225.315 42.2748C225.685 41.8438 226.002 41.728 226.284 41.728V39.728C225.286 39.728 224.451 40.2096 223.797 40.9732L225.315 42.2748ZM183.148 33.84C181.806 33.84 181.186 33.5178 180.916 33.1854L179.364 34.4466C180.203 35.4795 181.588 35.84 183.148 35.84V33.84ZM180.94 33.216C180.558 32.7064 180.372 32.149 180.372 31.512H178.372C178.372 32.5817 178.698 33.5602 179.34 34.416L180.94 33.216ZM180.372 31.512C180.372 30.7139 180.612 30.1869 181.014 29.8111L179.65 28.3489C178.772 29.1678 178.372 30.2621 178.372 31.512H180.372ZM180.991 29.8326C181.503 29.3838 182.041 29.184 182.636 29.184V27.184C181.524 27.184 180.526 27.5815 179.673 28.3274L180.991 29.8326ZM182.636 29.184H184.236V27.184H182.636V29.184ZM185.223 28.3451C185.904 24.1709 186.543 20.5769 187.137 17.5615L185.175 17.1745C184.575 20.2177 183.933 23.8344 183.249 28.0229L185.223 28.3451ZM187.137 17.5641C187.379 16.353 187.866 15.5509 188.528 15.0389C189.198 14.5205 190.165 14.208 191.532 14.208V12.208C189.87 12.208 188.426 12.5888 187.304 13.4571C186.174 14.3318 185.488 15.6097 185.175 17.1719L187.137 17.5641ZM191.532 14.208C192.62 14.208 193.249 14.4537 193.601 14.7692C193.933 15.0658 194.18 15.5687 194.18 16.472H196.18C196.18 15.1993 195.819 14.0701 194.935 13.2788C194.071 12.5063 192.876 12.208 191.532 12.208V14.208ZM194.18 16.472C194.18 16.9227 194.159 17.2208 194.13 17.3956L196.102 17.7244C196.159 17.3872 196.18 16.96 196.18 16.472H194.18ZM194.132 17.3822L192.212 28.0062L194.18 28.3618L196.1 17.7378L194.132 17.3822ZM193.251 29.1825C195.685 29.0473 197.917 28.4593 199.931 27.4062L199.005 25.6338C197.265 26.5433 195.315 27.0647 193.141 27.1855L193.251 29.1825ZM199.923 27.4104C201.995 26.3512 203.647 24.8662 204.857 22.9595L203.167 21.8885C202.158 23.4805 200.781 24.7261 199.013 25.6296L199.923 27.4104ZM204.847 22.974C206.113 21.0515 206.74 18.874 206.74 16.472H204.74C204.74 18.5073 204.215 20.2978 203.177 21.874L204.847 22.974ZM206.74 16.472C206.74 13.5291 205.721 11.1201 203.63 9.36924L202.346 10.9028C203.924 12.2239 204.74 14.0389 204.74 16.472H206.74ZM203.63 9.36924C201.546 7.62485 198.591 6.832 194.924 6.832V8.832C198.34 8.832 200.76 9.57514 202.346 10.9028L203.63 9.36924ZM194.924 6.832C190.568 6.832 186.702 7.92396 183.364 10.1342L184.468 11.8018C187.445 9.8307 190.918 8.832 194.924 8.832V6.832ZM183.367 10.1324C180.058 12.308 177.512 15.5502 175.7 19.7912L177.54 20.5768C179.227 16.6258 181.545 13.724 184.465 11.8036L183.367 10.1324ZM175.702 19.7877C173.884 23.9997 172.996 29.0923 172.996 35.032H174.996C174.996 29.281 175.857 24.475 177.538 20.5802L175.702 19.7877ZM172.996 35.032C172.996 37.8256 173.279 40.2687 173.866 42.344L175.79 41.8C175.267 39.95 174.996 37.6997 174.996 35.032H172.996ZM173.866 42.344C174.438 44.369 175.169 45.9913 176.105 47.1249L177.647 45.8511C176.962 45.022 176.327 43.7003 175.79 41.8L173.866 42.344ZM176.105 47.1249C176.969 48.1709 177.993 48.96 179.18 48.96V46.96C178.916 46.96 178.404 46.7678 177.647 45.8511L176.105 47.1249ZM179.18 48.96C180.148 48.96 180.89 48.442 181.376 47.6521L179.672 46.6039C179.476 46.9233 179.322 46.96 179.18 46.96V48.96ZM181.346 47.6972C181.857 46.9596 182.185 45.8879 182.405 44.6099L180.435 44.2701C180.228 45.4667 179.959 46.187 179.702 46.5588L181.346 47.6972ZM182.404 44.6172L184.132 35.0172L182.164 34.6628L180.436 44.2628L182.404 44.6172ZM277.924 40.664L278.118 41.645L278.181 41.6327L278.241 41.6127L277.924 40.664ZM280.548 45.976L279.709 45.4328L279.705 45.4393L279.701 45.446L280.548 45.976ZM278.5 47.256L278.322 46.2721L278.317 46.273L278.5 47.256ZM267.044 49.688L266.812 48.7153L266.138 48.8762L266.052 49.564L267.044 49.688ZM266.853 51.224L267.843 51.3647L267.844 51.3564L267.845 51.348L266.853 51.224ZM259.685 69.848L258.939 69.1816L258.931 69.1901L259.685 69.848ZM238.117 73.304L238.782 72.5575L238.781 72.5566L238.117 73.304ZM241.253 54.744L240.595 53.9904L241.253 54.744ZM259.492 45.464L259.806 46.4137L260.395 46.2192L260.483 45.6044L259.492 45.464ZM260.772 36.44L259.786 36.2756L259.784 36.2876L259.782 36.2996L260.772 36.44ZM261.413 32.344L262.401 32.4923L260.477 31.9896L261.413 32.344ZM253.733 44.184L253.091 43.4166L253.733 44.184ZM234.917 44.76L234.154 45.4073L234.16 45.4144L234.917 44.76ZM232.549 30.872L233.532 31.0509L233.533 31.047L232.549 30.872ZM234.148 23.128L235.124 23.3463L235.126 23.3404L234.148 23.128ZM235.557 16.088L234.575 15.8965L234.573 15.9081L234.571 15.9197L235.557 16.088ZM229.285 10.2L229.868 11.0123L229.871 11.0096L229.285 10.2ZM223.973 15.768L223.171 15.1702L223.167 15.1748L223.973 15.768ZM220.389 16.152L219.575 16.7332L219.599 16.7666L219.625 16.7979L220.389 16.152ZM221.54 9.688L220.732 9.09913L220.728 9.10479L221.54 9.688ZM242.917 3.096L242.18 3.77262L242.185 3.77795L242.19 3.7832L242.917 3.096ZM244.516 16.92L243.533 16.7411L243.531 16.7483L243.53 16.7556L244.516 16.92ZM242.725 25.752L243.697 25.9854L243.7 25.9726L242.725 25.752ZM241.572 30.936L242.553 31.1321L242.554 31.126L241.572 30.936ZM242.34 38.808L243.114 38.1748V38.1748L242.34 38.808ZM253.413 36.44L252.688 35.7512L252.687 35.7516L253.413 36.44ZM259.94 24.856L259.006 24.5006L259.003 24.5074L259.94 24.856ZM264.164 5.912L265.158 6.02555L265.158 6.02491L264.164 5.912ZM265.637 1.944L266.344 2.6511L266.353 2.64155L266.362 2.63174L265.637 1.944ZM273.38 6.424L272.391 6.28257L272.39 6.28444L273.38 6.424ZM270.884 23.64L269.896 23.4916L269.894 23.5024L270.884 23.64ZM269.477 33.112L268.489 32.956L268.487 32.9688L269.477 33.112ZM268.069 42.968L267.078 42.8284L266.866 44.3343L268.333 43.9325L268.069 42.968ZM258.533 52.184L259.522 52.3254L259.754 50.7013L258.205 51.2393L258.533 52.184ZM244.133 68.184L243.405 68.8706L243.407 68.8717L244.133 68.184ZM258.469 52.632L257.479 52.4906L257.477 52.4996L258.469 52.632ZM278.241 41.6127C278.34 41.5795 278.594 41.536 279.077 41.536V39.536C278.535 39.536 278.021 39.5779 277.608 39.7153L278.241 41.6127ZM279.077 41.536C279.569 41.536 279.786 41.6821 279.917 41.8514C280.086 42.0697 280.253 42.5143 280.253 43.352H282.253C282.253 42.3124 282.056 41.3489 281.5 40.6286C280.905 39.8593 280.035 39.536 279.077 39.536V41.536ZM280.253 43.352C280.253 44.2195 280.055 44.8972 279.709 45.4328L281.388 46.5192C281.98 45.6041 282.253 44.5325 282.253 43.352H280.253ZM279.701 45.446C279.451 45.8456 279.039 46.1417 278.322 46.2721L278.679 48.2399C279.839 48.029 280.793 47.4717 281.397 46.506L279.701 45.446ZM278.317 46.273C274.418 47.0013 270.583 47.8154 266.812 48.7153L267.277 50.6607C271.015 49.7686 274.817 48.9614 278.684 48.239L278.317 46.273ZM266.052 49.564L265.86 51.1L267.845 51.348L268.037 49.812L266.052 49.564ZM265.862 51.0833C264.681 59.3971 262.335 65.3808 258.939 69.1817L260.43 70.5143C264.202 66.2939 266.635 59.8616 267.843 51.3647L265.862 51.0833ZM258.931 69.1901C255.578 73.0283 251.414 74.928 246.372 74.928V76.928C251.997 76.928 256.708 74.7743 260.438 70.5059L258.931 69.1901ZM246.372 74.928C242.99 74.928 240.506 74.0941 238.782 72.5575L237.451 74.0505C239.652 76.0126 242.672 76.928 246.372 76.928V74.928ZM238.781 72.5566C237.085 71.0495 236.236 69.1294 236.236 66.712H234.236C234.236 69.6706 235.308 72.1452 237.452 74.0514L238.781 72.5566ZM236.236 66.712C236.236 62.5756 238.072 58.8455 241.91 55.4976L240.595 53.9904C236.412 57.6398 234.236 61.8884 234.236 66.712H236.236ZM241.91 55.4976C245.777 52.1239 251.715 49.0824 259.806 46.4137L259.179 44.5143C250.972 47.2216 244.749 50.3668 240.595 53.9904L241.91 55.4976ZM260.483 45.6044L261.763 36.5804L259.782 36.2996L258.502 45.3236L260.483 45.6044ZM261.759 36.6044C261.931 35.5727 262.145 34.2014 262.401 32.4923L260.424 32.1957C260.168 33.9 259.956 35.2593 259.786 36.2756L261.759 36.6044ZM260.477 31.9896C258.51 37.1797 256.032 40.959 253.091 43.4166L254.374 44.9514C257.662 42.2036 260.304 38.0896 262.348 32.6984L260.477 31.9896ZM253.091 43.4166C250.145 45.8783 246.892 47.088 243.301 47.088V49.088C247.389 49.088 251.09 47.6951 254.374 44.9514L253.091 43.4166ZM243.301 47.088C239.843 47.088 237.357 46.0516 235.673 44.1056L234.16 45.4144C236.316 47.9057 239.42 49.088 243.301 49.088V47.088ZM235.679 44.1128C233.941 42.0657 233.036 39.4083 233.036 36.056H231.036C231.036 39.7863 232.052 42.9316 234.154 45.4072L235.679 44.1128ZM233.036 36.056C233.036 34.5482 233.2 32.8809 233.532 31.0509L231.565 30.6931C231.215 32.6177 231.036 34.4065 231.036 36.056H233.036ZM233.533 31.047C233.871 29.1481 234.4 26.583 235.124 23.3463L233.173 22.9097C232.446 26.1583 231.909 28.7559 231.564 30.697L233.533 31.047ZM235.126 23.3404C235.767 20.3903 236.24 18.0271 236.542 16.2563L234.571 15.9197C234.276 17.6476 233.81 19.9777 233.171 22.9156L235.126 23.3404ZM236.538 16.2795C236.888 14.485 237.068 12.8616 237.068 11.416H235.068C235.068 12.701 234.908 14.1923 234.575 15.8965L236.538 16.2795ZM237.068 11.416C237.068 10.2914 236.857 9.26442 236.269 8.50149C235.642 7.68921 234.724 7.344 233.701 7.344V9.344C234.256 9.344 234.521 9.51078 234.684 9.72251C234.886 9.98358 235.068 10.4925 235.068 11.416H237.068ZM233.701 7.344C232.15 7.344 230.467 8.1075 228.698 9.39039L229.871 11.0096C231.515 9.81783 232.777 9.344 233.701 9.344V7.344ZM228.701 9.38767C226.922 10.6651 225.081 12.6095 223.171 15.1702L224.774 16.3658C226.619 13.8918 228.319 12.1242 229.868 11.0123L228.701 9.38767ZM223.167 15.1748C222.68 15.8361 222.284 15.984 221.988 15.984V17.984C223.144 17.984 224.07 17.3212 224.778 16.3612L223.167 15.1748ZM221.988 15.984C221.749 15.984 221.476 15.8894 221.152 15.5061L219.625 16.7979C220.239 17.5239 221.034 17.984 221.988 17.984V15.984ZM221.202 15.5708C220.895 15.1408 220.749 14.6822 220.749 14.168H218.749C218.749 15.1044 219.029 15.9685 219.575 16.7332L221.202 15.5708ZM220.749 14.168C220.749 13.141 221.218 11.8523 222.353 10.2712L220.728 9.10479C219.474 10.8517 218.749 12.5497 218.749 14.168H220.749ZM222.349 10.2769C226.568 4.48601 231.394 1.728 236.837 1.728V-0.272003C230.588 -0.272003 225.217 2.94332 220.732 9.09914L222.349 10.2769ZM236.837 1.728C239.224 1.728 240.959 2.44331 242.18 3.77262L243.653 2.41937C241.973 0.591351 239.654 -0.272003 236.837 -0.272003V1.728ZM242.19 3.7832C243.446 5.11129 244.156 7.14957 244.156 10.072H246.156C246.156 6.85042 245.373 4.23804 243.643 2.4088L242.19 3.7832ZM244.156 10.072C244.156 12.2264 243.949 14.4491 243.533 16.7411L245.5 17.0989C245.937 14.6976 246.156 12.3549 246.156 10.072H244.156ZM243.53 16.7556C243.15 19.0333 242.558 21.9568 241.749 25.5314L243.7 25.9726C244.513 22.3792 245.115 19.4147 245.503 17.0844L243.53 16.7556ZM241.752 25.5186C241.239 27.6586 240.851 29.4027 240.591 30.746L242.554 31.126C242.806 29.824 243.186 28.112 243.697 25.9854L241.752 25.5186ZM240.592 30.7399C240.329 32.0544 240.189 33.1919 240.189 34.136H242.189C242.189 33.3734 242.304 32.3776 242.553 31.1321L240.592 30.7399ZM240.189 34.136C240.189 36.3797 240.575 38.229 241.567 39.4412L243.114 38.1748C242.57 37.5097 242.189 36.2443 242.189 34.136H240.189ZM241.567 39.4412C242.613 40.7198 244.327 41.216 246.372 41.216V39.216C244.578 39.216 243.604 38.7735 243.114 38.1748L241.567 39.4412ZM246.372 41.216C249.064 41.216 251.655 39.7445 254.138 37.1284L252.687 35.7516C250.392 38.1702 248.289 39.216 246.372 39.216V41.216ZM254.138 37.1287C256.7 34.4316 258.934 30.4305 260.878 25.2046L259.003 24.5074C257.107 29.6068 254.989 33.3284 252.688 35.7512L254.138 37.1287ZM260.875 25.2114C262.876 19.9486 264.298 13.5474 265.158 6.02555L263.171 5.79845C262.324 13.2099 260.93 19.438 259.006 24.5006L260.875 25.2114ZM265.158 6.02491C265.363 4.22281 265.817 3.17799 266.344 2.6511L264.929 1.23689C263.92 2.246 263.393 3.84651 263.171 5.79909L265.158 6.02491ZM266.362 2.63174C266.889 2.07545 267.702 1.728 268.965 1.728V-0.272003C267.326 -0.272003 265.92 0.191205 264.911 1.25625L266.362 2.63174ZM268.965 1.728C270.304 1.728 271.124 2.06212 271.617 2.5551C272.11 3.04809 272.445 3.86881 272.445 5.208H274.445C274.445 3.56052 274.032 2.14124 273.032 1.14089C272.031 0.140543 270.612 -0.272003 268.965 -0.272003V1.728ZM272.445 5.208C272.445 5.7004 272.423 6.05191 272.391 6.28257L274.37 6.56542C274.423 6.19875 274.445 5.7396 274.445 5.208H272.445ZM272.39 6.28444C271.495 12.6395 270.663 18.3752 269.896 23.4917L271.873 23.7883C272.642 18.6648 273.474 12.9232 274.371 6.56356L272.39 6.28444ZM269.894 23.5024C269.468 26.5679 269 29.7191 268.489 32.956L270.464 33.268C270.977 30.0195 271.447 26.8561 271.875 23.7776L269.894 23.5024ZM268.487 32.9688C268.017 36.2127 267.548 39.4992 267.078 42.8284L269.059 43.1076C269.528 39.7808 269.997 36.4967 270.466 33.2552L268.487 32.9688ZM268.333 43.9325C271.422 43.086 274.684 42.3234 278.118 41.645L277.731 39.683C274.253 40.3699 270.944 41.1433 267.804 42.0035L268.333 43.9325ZM258.205 51.2393C252.989 53.0497 248.987 55.0828 246.272 57.3714C243.542 59.6728 242.044 62.2978 242.044 65.24H244.044C244.044 63.0622 245.128 60.9512 247.561 58.9006C250.009 56.8372 253.751 54.9023 258.86 53.1287L258.205 51.2393ZM242.044 65.24C242.044 66.6539 242.482 67.8923 243.405 68.8706L244.86 67.4974C244.333 66.9397 244.044 66.2154 244.044 65.24H242.044ZM243.407 68.8717C244.404 69.9248 245.758 70.4 247.333 70.4V68.4C246.176 68.4 245.397 68.0645 244.858 67.4963L243.407 68.8717ZM247.333 70.4C250.681 70.4 253.385 68.792 255.398 65.7612C257.376 62.7819 258.705 58.4148 259.46 52.7644L257.477 52.4996C256.739 58.0279 255.465 62.0448 253.731 64.6548C252.032 67.2133 249.914 68.4 247.333 68.4V70.4ZM259.458 52.7734L259.522 52.3254L257.543 52.0426L257.479 52.4906L259.458 52.7734Z" fill="black" mask="url(#path-1-outside-1_1_2)"/>
<defs>
<linearGradient id="paint0_linear_1_2" x1="-3" y1="27.5" x2="275" y2="27.5" gradientUnits="userSpaceOnUse">
<stop stop-color="#FF0000"/>
<stop offset="0.5" stop-color="#FFA473"/>
<stop offset="1" stop-color="#001C59"/>
</linearGradient>
</defs>
</svg>
